<svg width="788" height="1024" viewBox="0 0 788 1024" fill="none" xmlns="http://www.w3.org/2000/svg">
<path fill-rule="evenodd" clip-rule="evenodd" d="M-696.529 -838.848C-599.361 -780.128 -476.399 -697.53 -411.756 -584.761C-390.547 -547.761 -375.614 -507.511 -369.931 -463.792C-355.781 -436.713 -345.036 -407.949 -338.795 -377.419C-338.374 -376.695 -337.955 -375.971 -337.539 -375.245C-324.926 -353.241 -314.532 -330.088 -306.984 -305.74C-301.902 -298.12 -297.077 -290.354 -292.54 -282.439C-289.601 -277.311 -286.782 -272.121 -284.092 -266.867C-197.526 -211.042 -102.429 -137.74 -48.2694 -43.2591C-15.9433 13.1338 1.80112 77.075 -5.5578 149.344C-12.9165 221.61 -45.3739 302.179 -113.409 391.835C-271.862 600.641 -459.967 657.537 -604.92 701.382L-604.945 701.389L-604.951 701.391L-605.051 701.421L-605.059 701.423L-605.142 701.448L-605.233 701.476C-618.581 705.514 -631.564 709.441 -644.122 713.368C-718.627 736.661 -778.146 759.888 -810.96 805.656C-843.76 851.403 -849.93 919.757 -817.479 1033.46L-818.029 1033.61C-850.493 919.865 -844.381 851.289 -811.424 805.323C-778.482 759.377 -718.771 736.108 -644.293 712.823C-631.636 708.866 -618.552 704.908 -605.096 700.838L-605.089 700.836C-460.142 656.992 -272.201 600.143 -113.864 391.49C-45.8749 301.894 -13.4716 221.422 -6.12618 149.286C1.21892 77.1528 -16.4893 13.33 -48.7651 -42.975C-102.685 -137.039 -197.256 -210.112 -283.574 -265.853C-281.713 -262.191 -279.915 -258.499 -278.181 -254.776C-275.441 -251.33 -272.75 -247.852 -270.112 -244.34C-211.04 -198.542 -155.352 -144.129 -118.557 -79.9417C-86.2312 -23.5489 -68.4868 40.3925 -75.8457 112.661C-83.2044 184.928 -115.662 265.496 -183.697 355.152C-342.15 563.958 -530.255 620.855 -675.208 664.699L-675.246 664.711C-688.692 668.777 -701.766 672.732 -714.41 676.685C-788.915 699.979 -848.434 723.205 -881.248 768.973C-914.048 814.721 -920.218 883.075 -887.767 996.774L-888.317 996.931C-920.781 883.183 -914.669 814.606 -881.712 768.64C-848.77 722.695 -789.059 699.425 -714.58 676.14C-701.922 672.182 -688.835 668.224 -675.377 664.153C-530.43 620.309 -342.489 563.46 -184.152 354.807C-116.163 265.212 -83.7595 184.74 -76.4141 112.604C-69.069 40.4702 -86.7772 -23.3526 -119.053 -79.6576C-155.461 -143.171 -210.401 -197.114 -268.821 -242.613C-266.632 -239.672 -264.481 -236.707 -262.368 -233.719C-231.699 -203.076 -204.324 -169.426 -183.186 -132.55C-150.86 -76.1575 -133.115 -12.2162 -140.474 60.0528C-147.833 132.319 -180.29 212.888 -248.326 302.544C-406.778 511.35 -594.884 568.246 -739.837 612.09L-739.875 612.102C-753.32 616.169 -766.394 620.123 -779.039 624.077C-853.543 647.37 -913.062 670.597 -945.877 716.364C-978.676 762.112 -984.846 830.466 -952.396 944.165L-952.945 944.322C-985.41 830.574 -979.297 761.997 -946.341 716.032C-913.399 670.086 -853.687 646.817 -779.209 623.531C-766.551 619.574 -753.464 615.615 -740.006 611.545C-595.058 567.701 -407.118 510.852 -248.781 302.198C-180.791 212.603 -148.388 132.131 -141.043 59.995C-133.698 -12.1384 -151.406 -75.9612 -183.682 -132.266C-204.257 -168.16 -230.752 -200.997 -260.448 -230.981C-253.597 -221.134 -247.173 -211.038 -241.24 -200.688C-208.914 -144.295 -191.169 -80.3541 -198.528 -8.08507C-205.887 64.181 -238.344 144.75 -306.38 234.406C-464.832 443.212 -652.938 500.108 -797.891 543.952L-797.929 543.964C-811.375 548.031 -824.448 551.985 -837.093 555.939C-911.597 579.232 -971.116 602.459 -1003.93 648.227C-1036.73 693.974 -1042.9 762.328 -1010.45 876.027L-1011 876.184C-1043.46 762.436 -1037.35 693.859 -1004.4 647.894C-971.453 601.948 -911.741 578.679 -837.263 555.393C-824.607 551.437 -811.522 547.479 -798.067 543.409L-798.06 543.407C-653.113 499.563 -465.172 442.714 -306.835 234.06C-238.846 144.465 -206.442 63.9933 -199.097 -8.14298C-191.752 -80.2763 -209.46 -144.099 -241.736 -200.404C-248.203 -211.686 -255.255 -222.666 -262.807 -233.351C-266.218 -236.758 -269.669 -240.127 -273.157 -243.46C-253.533 -197.028 -244.116 -145.942 -249.829 -89.8355C-257.187 -17.5693 -289.645 62.9995 -357.68 152.655C-516.133 361.462 -704.238 418.358 -849.191 462.202L-849.229 462.214C-862.675 466.281 -875.749 470.235 -888.393 474.188C-962.898 497.482 -1022.42 520.708 -1055.23 566.476C-1088.03 612.224 -1094.2 680.578 -1061.75 794.277L-1062.3 794.434C-1094.76 680.686 -1088.65 612.109 -1055.7 566.143C-1022.75 520.198 -963.042 496.928 -888.563 473.643C-875.905 469.686 -862.818 465.727 -849.36 461.656C-704.413 417.812 -516.472 360.964 -358.135 152.31C-290.146 62.7148 -257.743 -17.7571 -250.397 -89.8933C-244.645 -146.384 -254.258 -197.778 -274.201 -244.455C-278.618 -248.658 -283.093 -252.802 -287.618 -256.888C-290.778 -259.23 -293.944 -261.547 -297.112 -263.842C-292.916 -238.023 -291.942 -210.972 -294.827 -182.642C-302.186 -110.375 -334.643 -29.8066 -402.679 59.8493C-561.131 268.656 -749.237 325.552 -894.19 369.396L-894.228 369.408C-907.673 373.474 -920.747 377.429 -933.392 381.382C-1007.9 404.676 -1067.42 427.902 -1100.23 473.67C-1133.03 519.418 -1139.2 587.772 -1106.75 701.471L-1107.3 701.628C-1139.76 587.88 -1133.65 519.303 -1100.69 473.337C-1067.75 427.392 -1008.04 404.122 -933.562 380.837C-920.904 376.879 -907.817 372.921 -894.359 368.85C-749.411 325.006 -561.471 268.158 -403.134 59.5039C-335.144 -30.0913 -302.741 -110.563 -295.396 -182.699C-292.495 -211.185 -293.501 -238.374 -297.769 -264.317C-309.777 -272.996 -321.826 -281.336 -333.791 -289.345C-333.94 -287.596 -334.104 -285.843 -334.284 -284.084C-341.642 -211.818 -374.1 -131.249 -442.135 -41.5936C-600.587 167.213 -788.693 224.109 -933.646 267.953L-933.684 267.965C-947.129 272.032 -960.203 275.986 -972.848 279.939C-1047.35 303.233 -1106.87 326.46 -1139.69 372.227C-1172.49 417.975 -1178.66 486.329 -1146.2 600.028L-1146.75 600.185C-1179.22 486.437 -1173.11 417.86 -1140.15 371.894C-1107.21 325.949 -1047.5 302.679 -973.018 279.394C-960.36 275.437 -947.273 271.478 -933.815 267.407C-788.868 223.563 -600.927 166.715 -442.59 -41.9389C-374.601 -131.534 -342.197 -212.006 -334.852 -284.142C-334.662 -286.003 -334.49 -287.858 -334.333 -289.708C-351.101 -300.919 -367.699 -311.481 -383.782 -321.42C-400.363 -268.267 -430.277 -211.1 -476.896 -149.667C-635.348 59.1394 -823.454 116.036 -968.407 159.88L-968.445 159.892C-981.891 163.958 -994.964 167.913 -1007.61 171.866C-1082.11 195.16 -1141.63 218.386 -1174.45 264.154C-1207.25 309.901 -1213.42 378.256 -1180.97 491.955L-1181.52 492.112C-1213.98 378.363 -1207.87 309.787 -1174.91 263.821C-1141.97 217.876 -1082.26 194.606 -1007.78 171.321C-995.121 167.363 -982.034 163.405 -968.576 159.334C-823.629 115.49 -635.688 58.6414 -477.351 -150.012C-430.723 -211.458 -400.833 -268.612 -384.284 -321.73C-390.825 -325.769 -397.28 -329.706 -403.625 -333.54L-403.33 -334.029C-397.024 -330.218 -390.609 -326.307 -384.108 -322.293C-383.253 -325.053 -382.434 -327.802 -381.65 -330.54C-411.305 -351.071 -440.803 -369.56 -468.254 -386.149L-467.958 -386.638C-440.556 -370.078 -411.103 -351.62 -381.484 -331.121C-379.552 -337.909 -377.839 -344.63 -376.337 -351.285C-425.978 -391.702 -479.164 -425.797 -526.308 -454.287L-526.012 -454.776C-478.94 -426.329 -425.813 -392.278 -376.197 -351.908C-373.924 -362.06 -372.143 -372.057 -370.827 -381.902C-434.127 -445.518 -511.761 -496.244 -577.608 -536.037L-577.313 -536.526C-511.577 -496.801 -434.035 -446.147 -370.733 -382.616C-370.31 -385.832 -369.937 -389.032 -369.613 -392.216C-368.654 -401.633 -368.122 -410.91 -367.994 -420.046C-436.133 -509.995 -538.895 -578.255 -622.607 -628.843L-622.311 -629.332C-538.786 -578.856 -436.2 -510.736 -367.982 -420.976C-367.821 -435.544 -368.687 -449.755 -370.484 -463.618C-372.735 -467.922 -375.072 -472.184 -377.491 -476.403C-442.052 -589.03 -564.891 -671.563 -662.063 -730.286L-661.767 -730.775C-564.599 -672.055 -441.638 -589.456 -376.995 -476.688C-374.831 -472.912 -372.732 -469.103 -370.702 -465.259C-376.522 -508.303 -391.325 -547.97 -412.252 -584.477C-476.813 -697.104 -599.653 -779.637 -696.824 -838.359L-696.529 -838.848ZM-284.53 -266.47C-282.875 -263.234 -281.268 -259.974 -279.712 -256.69C-283.616 -261.55 -287.619 -266.344 -291.711 -271.073C-289.325 -269.552 -286.931 -268.018 -284.53 -266.47ZM-293.402 -272.15C-288.353 -266.356 -283.437 -260.464 -278.671 -254.474C-277.827 -252.66 -276.998 -250.839 -276.186 -249.01C-279.867 -251.817 -283.559 -254.592 -287.259 -257.333C-290.662 -260.405 -294.093 -263.445 -297.549 -266.452C-298.092 -269.618 -298.683 -272.767 -299.322 -275.896C-297.355 -274.656 -295.381 -273.408 -293.402 -272.15ZM-299.482 -276.672C-297.903 -275.678 -296.32 -274.678 -294.734 -273.672C-296.516 -275.702 -298.315 -277.72 -300.13 -279.725C-299.909 -278.71 -299.693 -277.692 -299.482 -276.672ZM-299.992 -276.318C-299.359 -273.245 -298.771 -270.154 -298.231 -267.044C-309.695 -276.995 -321.427 -286.588 -333.302 -295.831L-333.27 -296.32L-333.24 -296.799C-322.436 -290.269 -311.315 -283.445 -299.992 -276.318ZM-333.225 -297.044L-333.042 -297.347C-322.354 -290.888 -311.353 -284.14 -300.153 -277.094C-300.396 -278.258 -300.645 -279.418 -300.901 -280.577C-311.043 -291.743 -321.668 -302.537 -332.649 -312.968C-332.706 -307.707 -332.896 -302.398 -333.225 -297.044ZM-293.027 -272.588C-290.378 -270.904 -287.719 -269.203 -285.052 -267.486C-287.602 -272.431 -290.265 -277.321 -293.036 -282.155C-297.249 -289.504 -301.71 -296.725 -306.396 -303.82C-304.11 -296.277 -302.097 -288.62 -300.376 -280.848C-297.897 -278.117 -295.446 -275.364 -293.027 -272.588ZM-264.773 -236.109C-266.659 -238.736 -268.576 -241.344 -270.522 -243.935C-271.935 -245.03 -273.35 -246.121 -274.766 -247.206C-274.415 -246.401 -274.067 -245.595 -273.721 -244.788C-270.711 -241.922 -267.727 -239.029 -264.773 -236.109ZM-271.831 -245.67L-272.459 -246.154C-273.386 -246.868 -274.314 -247.58 -275.242 -248.29C-275.873 -249.721 -276.513 -251.147 -277.163 -252.569C-275.364 -250.284 -273.586 -247.984 -271.831 -245.67ZM-274.772 -245.786C-275.081 -246.5 -275.392 -247.213 -275.705 -247.924C-278.11 -249.762 -280.519 -251.586 -282.933 -253.396C-280.193 -250.881 -277.472 -248.344 -274.772 -245.786ZM-297.244 -264.642C-295.523 -263.397 -293.803 -262.146 -292.084 -260.887C-293.848 -262.454 -295.619 -264.013 -297.397 -265.563C-297.368 -265.385 -297.338 -265.208 -297.308 -265.031L-297.244 -264.642ZM-333.736 -289.996C-321.835 -282.034 -309.849 -273.744 -297.902 -265.118C-297.96 -265.464 -298.018 -265.809 -298.077 -266.154C-309.602 -276.177 -321.402 -285.836 -333.348 -295.142C-333.463 -293.432 -333.592 -291.716 -333.736 -289.996ZM-383.606 -321.983C-367.566 -312.072 -351.009 -301.54 -334.279 -290.359C-334.135 -292.099 -334.006 -293.835 -333.892 -295.566C-349.496 -307.704 -365.346 -319.241 -381.154 -330.197C-381.936 -327.47 -382.753 -324.732 -383.606 -321.983ZM-380.988 -330.777C-379.058 -337.545 -377.345 -344.246 -375.842 -350.882C-361.242 -338.977 -346.951 -326.524 -333.215 -313.505C-333.267 -307.81 -333.476 -302.06 -333.847 -296.255C-349.415 -308.355 -365.223 -319.855 -380.988 -330.777ZM-332.642 -313.749C-321.757 -303.425 -311.219 -292.745 -301.151 -281.7C-302.963 -289.755 -305.088 -297.685 -307.506 -305.492C-315.589 -317.605 -324.325 -329.348 -333.599 -340.73C-332.893 -331.875 -332.566 -322.882 -332.642 -313.749ZM-375.702 -351.505C-361.152 -339.649 -346.907 -327.248 -333.209 -314.286C-333.148 -323.503 -333.498 -332.577 -334.235 -341.509C-345.544 -355.332 -357.642 -368.621 -370.32 -381.391C-371.644 -371.58 -373.429 -361.618 -375.702 -351.505ZM-370.224 -382.105C-369.777 -385.474 -369.384 -388.824 -369.045 -392.158C-368.109 -401.341 -367.58 -410.39 -367.434 -419.305C-357.222 -405.769 -347.795 -391.743 -339.336 -377.213C-337.025 -365.891 -335.334 -354.326 -334.32 -342.513C-345.581 -356.233 -357.618 -369.425 -370.224 -382.105ZM-333.681 -341.733C-334.64 -353.28 -336.245 -364.591 -338.442 -375.67C-338.306 -375.434 -338.17 -375.197 -338.035 -374.961C-325.76 -353.548 -315.592 -331.047 -308.108 -307.416C-316.052 -319.205 -324.613 -330.641 -333.681 -341.733ZM-367.42 -420.234C-357.369 -406.955 -348.071 -393.202 -339.699 -378.964C-345.867 -408.307 -356.202 -436.012 -369.722 -462.152C-368.025 -448.518 -367.228 -434.548 -367.42 -420.234ZM26.2935 -21.0311C-38.3492 -133.8 -161.311 -216.398 -258.479 -275.119L-258.774 -274.63C-161.603 -215.907 -38.7634 -133.374 25.7978 -20.7469C58.0737 35.5581 75.7818 99.3809 68.4367 171.514C61.0913 243.651 28.688 324.122 -39.3015 413.718C-197.638 622.371 -385.579 679.22 -530.527 723.064C-543.984 727.134 -557.071 731.093 -569.73 735.051C-644.208 758.336 -703.919 781.605 -736.861 827.551C-769.818 873.517 -775.93 942.093 -743.466 1055.84L-742.916 1055.68C-775.367 941.985 -769.197 873.631 -736.397 827.884C-703.583 782.116 -644.064 758.889 -569.559 735.596C-556.915 731.643 -543.841 727.688 -530.396 723.621L-530.357 723.61C-385.404 679.765 -197.299 622.869 -38.8463 414.063C29.189 324.407 61.6465 243.838 69.0051 171.572C76.364 99.3031 58.6196 35.3618 26.2935 -21.0311ZM-181.057 -264.475C-83.8888 -205.755 39.0729 -123.157 103.716 -10.3877C136.042 46.0052 153.786 109.947 146.427 182.216C139.069 254.482 106.611 335.05 38.5757 424.706C-119.877 633.513 -307.982 690.409 -452.935 734.253L-452.974 734.265C-466.419 738.331 -479.493 742.286 -492.137 746.239C-566.642 769.533 -626.161 792.759 -658.975 838.527C-691.775 884.275 -697.945 952.629 -665.494 1066.33L-666.044 1066.48C-698.508 952.737 -692.396 884.16 -659.439 838.194C-626.498 792.249 -566.786 768.979 -492.308 745.694C-479.651 741.737 -466.567 737.779 -453.111 733.709L-453.104 733.707C-308.157 689.863 -120.216 633.015 38.1206 424.361C106.11 334.766 138.513 254.294 145.859 182.158C153.204 110.024 135.496 46.2015 103.22 -10.1036C38.6586 -122.731 -84.1808 -205.264 -181.352 -263.986L-181.057 -264.475ZM182.903 -7.98801C118.26 -120.757 -4.70125 -203.355 -101.869 -262.076L-102.165 -261.587C-4.99323 -202.864 117.846 -120.331 182.407 -7.70392C214.683 48.6011 232.391 112.424 225.046 184.557C217.701 256.694 185.298 337.165 117.308 426.761C-41.0286 635.414 -228.969 692.263 -373.917 736.107L-373.934 736.112L-374.045 736.146C-387.458 740.203 -400.502 744.149 -413.12 748.094C-487.598 771.379 -547.31 794.648 -580.252 840.594C-613.208 886.56 -619.321 955.136 -586.856 1068.88L-586.307 1068.73C-618.757 955.028 -612.587 886.674 -579.788 840.927C-546.973 795.159 -487.454 771.932 -412.95 748.639C-400.374 744.707 -387.373 740.774 -374.005 736.73L-373.906 736.7L-373.845 736.682L-373.808 736.671L-373.776 736.661L-373.748 736.653C-228.794 692.809 -40.6893 635.912 117.763 427.106C185.799 337.45 218.256 256.881 225.615 184.615C232.974 112.346 215.229 48.4048 182.903 -7.98801ZM-21.7339 -264.751C75.4342 -206.03 198.396 -123.432 263.039 -10.6635C295.365 45.7293 313.109 109.671 305.75 181.94C298.392 254.206 265.934 334.775 197.899 424.43C39.4462 633.237 -148.659 690.133 -293.612 733.977L-293.641 733.986L-293.673 733.996L-293.709 734.007L-293.77 734.025L-293.869 734.055C-307.238 738.099 -320.238 742.032 -332.814 745.963C-407.319 769.257 -466.838 792.484 -499.652 838.251C-532.452 883.999 -538.622 952.353 -506.171 1066.05L-506.721 1066.21C-539.185 952.461 -533.073 883.884 -500.116 837.918C-467.174 791.973 -407.463 768.703 -332.985 745.418C-320.366 741.473 -307.322 737.527 -293.91 733.47L-293.799 733.436L-293.781 733.431C-148.834 689.587 39.1069 632.739 197.444 424.085C265.433 334.49 297.836 254.018 305.182 181.882C312.527 109.748 294.819 45.9256 262.543 -10.3794C197.982 -123.006 75.1422 -205.539 -22.0293 -264.262L-21.7339 -264.751ZM343.624 -15.8218C278.981 -128.591 156.02 -211.189 58.8514 -269.909L58.5559 -269.42C155.727 -210.698 278.567 -128.165 343.128 -15.5376C375.404 40.7673 393.112 104.59 385.767 176.724C378.422 248.86 346.018 329.332 278.029 418.927C119.692 627.58 -68.2486 684.429 -213.196 728.273C-226.654 732.344 -239.741 736.302 -252.399 740.26C-326.877 763.545 -386.589 786.815 -419.531 832.76C-452.488 878.726 -458.6 947.303 -426.135 1061.05L-425.586 1060.89C-458.036 947.195 -451.867 878.841 -419.067 833.093C-386.252 787.325 -326.733 764.099 -252.229 740.805C-239.584 736.852 -226.511 732.897 -213.065 728.831L-213.027 728.819C-68.0738 684.975 120.031 628.078 278.484 419.272C346.519 329.616 378.977 249.048 386.335 176.781C393.694 104.512 375.95 40.5711 343.624 -15.8218ZM139.482 -275.48C236.65 -216.759 359.612 -134.161 424.254 -21.3921C456.58 35.0008 474.325 98.9421 466.966 171.211C459.607 243.477 427.15 324.046 359.114 413.702C200.662 622.508 12.5567 679.404 -132.397 723.249L-132.425 723.257L-132.457 723.267L-132.494 723.278L-132.554 723.296L-132.653 723.326C-146.022 727.37 -159.022 731.303 -171.598 735.235C-246.103 758.528 -305.622 781.755 -338.436 827.523C-371.236 873.27 -377.406 941.624 -344.956 1055.32L-345.505 1055.48C-377.969 941.732 -371.857 873.156 -338.901 827.19C-305.959 781.244 -246.247 757.975 -171.769 734.69C-159.151 730.745 -146.107 726.799 -132.694 722.741L-132.583 722.708L-132.566 722.703C12.3818 678.859 200.323 622.01 358.659 413.357C426.649 323.761 459.052 243.29 466.398 171.153C473.743 99.0199 456.034 35.1971 423.759 -21.1079C359.197 -133.735 236.358 -216.268 139.186 -274.991L139.482 -275.48ZM504.712 -25.8356C440.07 -138.604 317.108 -221.203 219.94 -279.923L219.644 -279.434C316.816 -220.711 439.655 -138.178 504.217 -25.5515C536.492 30.7536 554.201 94.5763 546.855 166.71C539.51 238.846 507.107 319.318 439.117 408.913C280.781 617.567 92.8397 674.415 -52.1078 718.259C-65.5655 722.33 -78.6526 726.289 -91.311 730.246C-165.789 753.531 -225.501 776.801 -258.443 822.746C-291.399 868.712 -297.511 937.289 -265.047 1051.04L-264.498 1050.88C-296.948 937.181 -290.778 868.827 -257.978 823.079C-225.164 777.312 -165.645 754.085 -91.1404 730.791C-78.496 726.838 -65.4222 722.884 -51.9771 718.817L-51.9387 718.805C93.0146 674.961 281.12 618.065 439.572 409.258C507.608 319.603 540.065 239.034 547.424 166.768C554.783 94.4986 537.038 30.5573 504.712 -25.8356ZM299.993 -282.104C397.161 -223.383 520.122 -140.785 584.765 -28.0161C617.091 28.3768 634.836 92.3181 627.477 164.587C620.118 236.853 587.661 317.422 519.625 407.078C361.173 615.884 173.067 672.78 28.1142 716.625L28.0858 716.633L28.0536 716.643L28.0171 716.654C14.5924 720.715 1.5383 724.663 -11.0876 728.611C-85.5922 751.904 -145.111 775.131 -177.926 820.899C-210.725 866.646 -216.895 935 -184.445 1048.7L-184.994 1048.86C-217.459 935.108 -211.346 866.532 -178.39 820.566C-145.448 774.62 -85.7363 751.351 -11.2581 728.066C1.36005 724.121 14.4042 720.175 27.8167 716.117L27.9278 716.084L27.945 716.079C172.893 672.235 360.833 615.386 519.17 406.733C587.16 317.137 619.563 236.665 626.908 164.529C634.253 92.3958 616.545 28.573 584.269 -27.732C519.708 -140.359 396.869 -222.892 299.697 -281.615L299.993 -282.104ZM664.239 -27.1267C599.596 -139.896 476.635 -222.494 379.467 -281.214L379.171 -280.725C476.343 -222.003 599.182 -139.47 663.743 -26.8426C696.019 29.4625 713.727 93.2852 706.382 165.419C699.037 237.555 666.634 318.027 598.644 407.622C440.307 616.275 252.367 673.124 107.419 716.968C93.9614 721.039 80.8743 724.997 68.2159 728.955C-6.26223 752.24 -65.9739 775.51 -98.9159 821.455C-131.872 867.421 -137.985 935.998 -105.52 1049.75L-104.971 1049.59C-137.421 935.89 -131.251 867.536 -98.4516 821.788C-65.6372 776.02 -6.11814 752.794 68.3864 729.5C81.0309 725.547 94.1046 721.592 107.55 717.526L107.588 717.514C252.542 673.67 440.647 616.773 599.099 407.967C667.135 318.311 699.592 237.743 706.951 165.476C714.31 93.2075 696.565 29.2662 664.239 -27.1267ZM458.229 -276.728C555.397 -218.007 678.359 -135.409 743.001 -22.6401C775.328 33.7528 793.072 97.6941 785.713 169.963C778.354 242.229 745.897 322.798 677.862 412.454C519.409 621.26 331.304 678.156 186.35 722.001L186.317 722.011C172.87 726.078 159.795 730.033 147.149 733.987C72.6442 757.28 13.1252 780.507 -19.6893 826.275C-52.4891 872.022 -58.6589 940.376 -26.2085 1054.08L-26.7579 1054.23C-59.2222 940.484 -53.11 871.908 -20.1536 825.942C12.7884 779.996 72.5001 756.727 146.978 733.442C159.634 729.485 172.719 725.527 186.175 721.457L186.181 721.455C331.129 677.611 519.07 620.762 677.406 412.109C745.396 322.513 777.799 242.042 785.145 169.905C792.49 97.7719 774.782 33.9491 742.506 -22.356C677.944 -134.983 555.105 -217.516 457.933 -276.239L458.229 -276.728Z" fill="url(#paint0_linear_1279_9526)"/>
<defs>
<linearGradient id="paint0_linear_1279_9526" x1="27.3777" y1="-651.47" x2="-435.202" y2="1135.63" gradientUnits="userSpaceOnUse">
<stop stop-color="white" stop-opacity="0.666667"/>
<stop offset="1" stop-color="#3356A6" stop-opacity="0.6"/>
</linearGradient>
</defs>
</svg>
