<svg width="890" height="469" viewBox="0 0 890 469" fill="none" xmlns="http://www.w3.org/2000/svg">
<path fill-rule="evenodd" clip-rule="evenodd" d="M1660.32 1224.25C1604.87 1143.86 1527.58 1042.55 1427.4 992.878C1394.53 976.581 1359.2 965.842 1321.36 963.225C1297.38 952.478 1272.13 944.743 1245.59 940.963L1245.38 940.858L1245.16 940.748C1244.66 940.497 1244.16 940.248 1243.66 939.999C1224.12 930.308 1203.7 922.582 1182.4 917.36C1175.59 913.392 1168.68 909.653 1161.65 906.168C1157.1 903.912 1152.5 901.762 1147.85 899.725C1095.44 828.288 1027.57 750.428 943.638 708.815C893.537 683.975 837.709 672.048 776.029 682.109C714.352 692.17 646.847 724.215 573.385 787.276C402.293 934.146 363.177 1098.61 333.036 1225.34C330.237 1237.11 327.516 1248.55 324.774 1259.62C308.63 1324.8 291.771 1377.1 254.184 1407.63C216.617 1438.15 158.262 1446.99 58.961 1425.02L58.8376 1425.57C158.189 1447.56 216.769 1438.76 254.545 1408.08C292.301 1377.4 309.191 1324.91 325.328 1259.76C328.071 1248.69 330.792 1237.25 333.591 1225.48C363.732 1098.76 402.81 934.455 573.757 787.71C647.162 724.698 714.572 692.713 776.121 682.673C837.666 672.634 893.374 684.532 943.384 709.326C1026.89 750.727 1094.49 828.076 1146.81 899.27C1143.61 897.882 1140.39 896.548 1137.15 895.27C1134.06 893.1 1130.94 890.974 1127.79 888.895C1085.41 840.542 1035.8 795.538 978.773 767.265C928.673 742.426 872.844 730.499 811.164 740.56C749.487 750.621 681.982 782.665 608.52 845.727C437.428 992.597 398.312 1157.07 368.171 1283.8C365.372 1295.56 362.651 1307 359.909 1318.08C343.765 1383.25 326.906 1435.55 289.32 1466.08C251.753 1496.6 193.398 1505.44 94.0962 1483.47L93.9728 1484.02C193.324 1506.01 251.904 1497.22 289.68 1466.53C327.436 1435.85 344.326 1383.37 360.463 1318.21C363.206 1307.14 365.928 1295.7 368.726 1283.93C398.867 1157.21 437.946 992.906 608.892 846.161C682.297 783.148 749.708 751.164 811.256 741.124C872.801 731.084 928.51 742.983 978.519 767.777C1034.85 795.705 1083.94 839.991 1125.99 887.711C1123.43 886.041 1120.86 884.402 1118.27 882.796C1090.37 858.044 1060.05 836.277 1027.29 820.034C977.189 795.194 921.361 783.267 859.681 793.328C798.004 803.39 730.499 835.434 657.037 898.495C485.945 1045.37 446.829 1209.83 416.688 1336.56C413.889 1348.33 411.168 1359.77 408.426 1370.84C392.282 1436.02 375.423 1488.32 337.837 1518.85C300.269 1549.37 241.914 1558.21 142.613 1536.23L142.49 1536.79C241.841 1558.78 300.421 1549.98 338.197 1519.29C375.953 1488.62 392.843 1436.13 408.98 1370.98C411.721 1359.91 414.441 1348.48 417.238 1336.72L417.243 1336.7C447.384 1209.98 486.463 1045.67 657.409 898.929C730.814 835.917 798.224 803.932 859.773 793.892C921.318 783.853 977.026 795.751 1027.04 820.545C1058.79 836.287 1088.24 857.225 1115.42 881.047C1106.74 875.763 1097.86 870.847 1088.8 866.354C1038.7 841.515 982.87 829.588 921.19 839.649C859.513 849.71 792.009 881.754 718.547 944.816C547.455 1091.69 508.338 1256.15 478.197 1382.88C475.399 1394.65 472.677 1406.09 469.935 1417.16C453.792 1482.34 436.932 1534.64 399.346 1565.17C361.779 1595.69 303.424 1604.53 204.123 1582.56L203.999 1583.11C303.35 1605.1 361.93 1596.3 399.706 1565.62C437.462 1534.94 454.353 1482.45 470.49 1417.3C473.232 1406.23 475.954 1394.79 478.752 1383.02C508.893 1256.3 547.972 1091.99 718.919 945.25C792.323 882.237 859.734 850.253 921.282 840.213C982.828 830.173 1038.54 842.072 1088.55 866.866C1098.57 871.836 1108.36 877.323 1117.93 883.256C1120.98 885.962 1124 888.704 1126.99 891.478C1086.15 877.078 1041.85 871.663 994.039 879.463C932.362 889.524 864.858 921.568 791.395 984.63C620.303 1131.5 581.187 1295.97 551.046 1422.7C548.247 1434.47 545.526 1445.91 542.784 1456.98C526.64 1522.16 509.781 1574.45 472.195 1604.99C434.628 1635.51 376.273 1644.34 276.971 1622.37L276.848 1622.93C376.199 1644.91 434.779 1636.12 472.555 1605.43C510.311 1574.76 527.202 1522.27 543.339 1457.12C546.08 1446.05 548.799 1434.61 551.596 1422.86L551.601 1422.83C581.742 1296.11 620.821 1131.81 791.768 985.064C865.172 922.051 932.583 890.067 994.131 880.027C1042.33 872.165 1086.94 877.756 1128.05 892.459C1131.88 896.032 1135.67 899.657 1139.41 903.328C1141.56 905.894 1143.69 908.466 1145.81 911.042C1123.45 908.786 1100.2 909.356 1076.05 913.294C1014.38 923.355 946.873 955.399 873.411 1018.46C702.319 1165.33 663.203 1329.8 633.062 1456.53C630.263 1468.3 627.542 1479.74 624.8 1490.81C608.656 1555.99 591.797 1608.28 554.21 1638.82C516.643 1669.34 458.288 1678.18 358.987 1656.2L358.864 1656.76C458.214 1678.74 516.795 1669.95 554.571 1639.26C592.327 1608.59 609.217 1556.1 625.354 1490.95C628.097 1479.87 630.818 1468.43 633.617 1456.67C663.758 1329.94 702.836 1165.64 873.783 1018.89C947.188 955.882 1014.6 923.898 1076.15 913.858C1100.45 909.894 1123.83 909.35 1146.32 911.669C1154.38 921.507 1162.14 931.398 1169.62 941.235C1168.15 941.451 1166.68 941.68 1165.2 941.921C1103.52 951.982 1036.02 984.026 962.554 1047.09C791.462 1193.96 752.346 1358.43 722.205 1485.16C719.406 1496.92 716.685 1508.36 713.943 1519.44C697.799 1584.62 680.94 1636.91 643.354 1667.44C605.787 1697.96 547.432 1706.8 448.13 1684.83L448.007 1685.38C547.358 1707.37 605.938 1698.58 643.714 1667.89C681.47 1637.21 698.36 1584.73 714.497 1519.57C717.24 1508.5 719.961 1497.06 722.759 1485.3L722.76 1485.29C752.901 1358.57 791.98 1194.27 962.926 1047.52C1036.33 984.509 1103.74 952.525 1165.29 942.485C1166.87 942.227 1168.45 941.984 1170.02 941.755C1180.5 955.55 1190.41 969.233 1199.76 982.508C1154.99 999.501 1107.47 1028.14 1057.15 1071.34C886.056 1218.21 846.939 1382.68 816.798 1509.41C814 1521.17 811.279 1532.62 808.536 1543.69C792.393 1608.87 775.533 1661.16 737.947 1691.7C700.38 1722.21 642.025 1731.05 542.724 1709.08L542.6 1709.64C641.951 1731.62 700.532 1722.83 738.307 1692.14C776.064 1661.47 792.954 1608.98 809.091 1543.83C811.833 1532.75 814.554 1521.31 817.353 1509.55L817.353 1509.54C847.495 1382.82 886.573 1218.52 1057.52 1071.77C1107.85 1028.57 1155.36 999.949 1200.1 982.99C1203.9 988.389 1207.61 993.718 1211.23 998.96L1211.7 998.636C1208.11 993.432 1204.43 988.141 1200.65 982.782C1202.95 981.915 1205.25 981.078 1207.53 980.272C1226.69 1004.66 1244.08 1029.02 1259.74 1051.73L1260.21 1051.4C1244.59 1028.75 1227.22 1004.43 1208.1 980.071C1213.8 978.072 1219.46 976.262 1225.07 974.635C1262.33 1015.16 1294.35 1059.05 1321.25 1098.05L1321.72 1097.72C1294.87 1058.79 1262.9 1014.96 1225.68 974.457C1234.25 971.99 1242.72 969.951 1251.07 968.316C1308.96 1019.37 1356.53 1083.39 1394.1 1137.86L1394.57 1137.54C1357.07 1083.17 1309.58 1019.24 1251.78 968.179C1254.49 967.656 1257.19 967.175 1259.88 966.736C1267.91 965.426 1275.85 964.489 1283.68 963.906C1364.43 1017.75 1428.35 1102.44 1476.12 1171.69L1476.59 1171.37C1428.94 1102.29 1365.17 1017.77 1284.61 963.839C1297.06 962.955 1309.27 962.965 1321.22 963.788C1325.03 965.496 1328.81 967.281 1332.55 969.138C1432.59 1018.74 1509.81 1119.93 1565.26 1200.32L1565.73 1200C1510.28 1119.61 1432.99 1018.3 1332.81 968.626C1329.52 966.996 1326.21 965.422 1322.87 963.907C1360.04 966.702 1394.79 977.346 1427.15 993.389C1527.18 1042.99 1604.4 1144.18 1659.85 1224.57L1660.32 1224.25ZM1147.48 900.186C1144.72 898.978 1141.95 897.811 1139.15 896.684C1143.36 899.673 1147.53 902.744 1151.64 905.888C1150.26 903.993 1148.88 902.092 1147.48 900.186ZM1152.82 907.51C1147.58 903.474 1142.27 899.559 1136.88 895.777C1135.33 895.167 1133.77 894.57 1132.22 893.985C1134.78 896.961 1137.32 899.948 1139.83 902.943C1142.64 905.701 1145.42 908.486 1148.18 911.293C1150.89 911.591 1153.59 911.932 1156.28 912.312C1155.13 910.716 1153.98 909.115 1152.82 907.51ZM1157.06 912.425C1156.18 911.202 1155.3 909.977 1154.42 908.749C1156.14 910.086 1157.85 911.435 1159.55 912.797C1158.72 912.669 1157.89 912.545 1157.06 912.425ZM1156.74 912.955C1154.11 912.577 1151.47 912.238 1148.81 911.938C1157.92 921.237 1166.73 930.782 1175.26 940.467C1175.5 940.436 1175.75 940.405 1176 940.375C1169.85 931.457 1163.43 922.284 1156.74 912.955ZM1176.35 940.332L1176.56 940.185C1170.48 931.366 1164.13 922.296 1157.52 913.069C1158.5 913.213 1159.47 913.361 1160.44 913.515C1170.53 921.624 1180.32 930.164 1189.82 939.028C1185.36 939.347 1180.87 939.78 1176.35 940.332ZM1153.23 907.109C1151.68 904.962 1150.11 902.807 1148.53 900.646C1152.86 902.561 1157.15 904.574 1161.39 906.68C1167.84 909.876 1174.19 913.285 1180.45 916.89C1173.94 915.346 1167.35 914.036 1160.68 912.975C1158.22 910.993 1155.73 909.038 1153.23 907.109ZM1120.8 885.056C1123.02 886.456 1125.22 887.881 1127.41 889.328C1128.39 890.443 1129.36 891.559 1130.33 892.677C1129.67 892.436 1129.01 892.197 1128.35 891.961C1125.86 889.636 1123.34 887.334 1120.8 885.056ZM1129.22 890.532C1129.96 891.383 1130.7 892.234 1131.44 893.086C1132.59 893.513 1133.74 893.948 1134.89 894.389C1133.01 893.087 1131.12 891.801 1129.22 890.532ZM1129.41 892.951C1129.98 893.156 1130.54 893.362 1131.1 893.571C1132.63 895.334 1134.14 897.102 1135.65 898.872C1133.58 896.884 1131.5 894.909 1129.41 892.951ZM1146.61 911.125C1145.64 909.935 1144.66 908.745 1143.68 907.557C1144.88 908.765 1146.09 909.978 1147.28 911.196L1146.94 911.159L1146.61 911.125ZM1170.27 941.141C1162.84 931.366 1155.13 921.535 1147.13 911.754L1147.55 911.799L1147.92 911.838C1157.1 921.194 1165.98 930.802 1174.57 940.554C1173.14 940.738 1171.71 940.933 1170.27 941.141ZM1200.31 982.299C1190.99 969.065 1181.11 955.42 1170.67 941.661C1172.12 941.452 1173.58 941.256 1175.03 941.072C1186.24 953.821 1196.95 966.812 1207.16 979.797C1204.88 980.601 1202.6 981.435 1200.31 982.299ZM1207.73 979.597C1213.41 977.601 1219.04 975.792 1224.64 974.165C1213.68 962.267 1202.26 950.662 1190.39 939.561C1185.54 939.898 1180.64 940.372 1175.71 940.986C1186.88 953.701 1197.55 966.653 1207.73 979.597ZM1190.6 938.974C1181.21 930.199 1171.54 921.74 1161.58 913.698C1168.54 914.831 1175.4 916.236 1182.18 917.896C1192.96 924.186 1203.46 931.054 1213.68 938.397C1206.08 938.254 1198.39 938.439 1190.6 938.974ZM1225.25 973.987C1214.34 962.137 1202.98 950.574 1191.17 939.508C1199.05 938.984 1206.82 938.816 1214.49 938.985C1226.92 947.961 1238.93 957.639 1250.53 967.84C1242.21 969.481 1233.78 971.523 1225.25 973.987ZM1251.24 967.702C1254.1 967.145 1256.95 966.635 1259.79 966.172C1267.59 964.9 1275.3 963.979 1282.91 963.392C1270.79 955.352 1258.29 948.008 1245.42 941.516C1235.62 940.124 1225.65 939.273 1215.5 939.01C1227.82 947.945 1239.74 957.567 1251.24 967.702ZM1214.68 938.418C1224.56 938.643 1234.28 939.424 1243.83 940.718L1243.41 940.511C1224.47 931.122 1204.72 923.582 1184.14 918.383C1194.59 924.553 1204.77 931.262 1214.68 938.418ZM1283.83 963.322C1271.98 955.427 1259.77 948.196 1247.19 941.773C1272.53 945.55 1296.71 952.942 1319.71 963.116C1307.99 962.38 1296.03 962.423 1283.83 963.322ZM920.692 645.942C1020.87 695.612 1098.17 796.921 1153.62 877.312L1153.15 877.636C1097.69 797.242 1020.47 696.051 920.439 646.453C870.429 621.659 814.721 609.761 753.176 619.8C691.627 629.84 624.216 661.825 550.812 724.837C379.865 871.582 340.787 1035.88 310.646 1162.61C307.847 1174.37 305.126 1185.82 302.383 1196.89C286.246 1262.04 269.356 1314.53 231.599 1345.2C193.824 1375.89 135.243 1384.69 35.8925 1362.7L36.0159 1362.14C135.317 1384.12 193.672 1375.28 231.239 1344.76C268.826 1314.22 285.685 1261.93 301.828 1196.75C304.571 1185.68 307.292 1174.24 310.09 1162.47C340.231 1035.74 379.348 871.273 550.44 724.403C623.902 661.341 691.406 629.297 753.084 619.236C814.764 609.175 870.592 621.102 920.692 645.942ZM1140.47 811.389C1085.02 730.998 1007.73 629.689 907.544 580.018C857.444 555.179 801.616 543.252 739.935 553.313C678.258 563.374 610.754 595.418 537.292 658.48C366.2 805.35 327.083 969.818 296.942 1096.55C294.144 1108.32 291.423 1119.76 288.68 1130.83C272.537 1196.01 255.678 1248.3 218.091 1278.84C180.524 1309.36 122.169 1318.19 22.8677 1296.22L22.7443 1296.78C122.095 1318.76 180.676 1309.97 218.451 1279.28C256.208 1248.61 273.098 1196.12 289.235 1130.97C291.974 1119.91 294.692 1108.48 297.487 1096.73L297.49 1096.72L297.495 1096.7L297.498 1096.68C327.639 969.96 366.717 805.659 537.664 658.914C611.068 595.901 678.479 563.917 740.027 553.877C801.573 543.837 857.281 555.736 907.29 580.53C1007.33 630.128 1084.55 731.319 1140 811.713L1140.47 811.389ZM901.384 512.15C1001.57 561.821 1078.86 663.13 1134.31 743.521L1133.84 743.845C1078.39 663.451 1001.17 562.26 901.13 512.662C851.121 487.868 795.413 475.969 733.867 486.009C672.319 496.049 604.908 528.033 531.504 591.046C360.557 737.791 321.479 902.092 291.337 1028.82C288.539 1040.58 285.818 1052.02 283.075 1063.1C266.938 1128.25 250.048 1180.74 212.291 1211.41C174.516 1242.1 115.935 1250.9 16.5843 1228.91L16.7078 1228.35C116.009 1250.33 174.364 1241.49 211.931 1210.97C249.517 1180.43 266.377 1128.14 282.52 1062.96C285.263 1051.89 287.984 1040.45 290.782 1028.68C320.923 901.95 360.04 737.482 531.132 590.612C604.594 527.55 672.098 495.506 733.775 485.445C795.456 475.384 851.284 487.311 901.384 512.15ZM1132.46 674.575C1077.01 594.185 999.716 492.876 899.533 443.205C849.433 418.366 793.605 406.438 731.925 416.5C670.247 426.561 602.743 458.605 529.281 521.667C358.189 668.537 319.072 833.005 288.931 959.735C286.133 971.502 283.412 982.944 280.669 994.016C264.526 1059.19 247.667 1111.49 210.08 1142.02C172.513 1172.54 114.158 1181.38 14.8568 1159.41L14.7334 1159.96C114.084 1181.95 172.665 1173.16 210.44 1142.47C248.197 1111.79 265.087 1059.31 281.224 994.153C283.967 983.079 286.688 971.637 289.487 959.872C319.628 833.147 358.706 668.846 529.653 522.101C603.057 459.088 670.468 427.104 732.017 417.064C793.562 407.024 849.27 418.923 899.279 443.717C999.316 493.315 1076.53 594.506 1131.99 674.9L1132.46 674.575ZM899.79 373.749C999.972 423.419 1077.26 524.728 1132.71 605.119L1132.24 605.443C1076.79 525.049 999.572 423.858 899.536 374.26C849.526 349.466 793.818 337.568 732.273 347.607C670.724 357.647 603.314 389.632 529.909 452.644C358.963 599.389 319.884 763.69 289.743 890.415L289.74 890.425L289.736 890.446L289.732 890.46C286.937 902.21 284.219 913.637 281.48 924.696C265.343 989.849 248.453 1042.34 210.697 1073.01C172.921 1103.7 114.34 1112.49 14.9896 1090.51L15.113 1089.95C114.414 1111.92 172.769 1103.09 210.336 1072.57C247.923 1042.03 264.782 989.738 280.926 924.559C283.657 913.53 286.368 902.135 289.155 890.417L289.171 890.348L289.186 890.288L289.188 890.279C319.329 763.548 358.445 599.08 529.537 452.21C602.999 389.149 670.504 357.105 732.181 347.043C793.861 336.982 849.689 348.909 899.79 373.749ZM1133.32 535.596C1077.87 455.205 1000.58 353.896 900.399 304.226C850.299 279.386 794.47 267.459 732.79 277.52C671.113 287.581 603.609 319.625 530.146 382.687C359.054 529.557 319.938 694.025 289.797 820.756L289.795 820.765L289.781 820.825L289.764 820.894C286.977 832.612 284.266 844.007 281.535 855.036C265.391 920.215 248.532 972.508 210.946 1003.04C173.379 1033.56 115.024 1042.4 15.7223 1020.43L15.5989 1020.98C114.95 1042.97 173.53 1034.18 211.306 1003.49C249.062 972.814 265.953 920.326 282.09 855.173C284.829 844.114 287.547 832.687 290.341 820.937L290.345 820.923L290.35 820.902L290.352 820.892C320.493 694.167 359.572 529.866 530.519 383.121C603.923 320.109 671.334 288.124 732.882 278.084C794.428 268.044 850.136 279.943 900.145 304.737C1000.18 354.335 1077.4 455.526 1132.85 535.92L1133.32 535.596ZM900.048 234.914C1000.23 284.584 1077.52 385.894 1132.97 466.284L1132.5 466.608C1077.05 386.215 999.831 285.023 899.795 235.426C849.785 210.631 794.077 198.733 732.532 208.772C670.983 218.812 603.572 250.797 530.168 313.809C359.221 460.554 320.143 624.856 290.002 751.58L289.999 751.59L289.994 751.611L289.991 751.626C287.196 763.375 284.478 774.802 281.739 785.861C265.602 851.014 248.712 903.502 210.956 934.175C173.18 964.864 114.599 973.659 15.2485 951.672L15.3719 951.115C114.673 973.09 173.028 964.251 210.595 933.731C248.182 903.196 265.041 850.903 281.184 785.724C283.916 774.695 286.627 763.3 289.414 751.582L289.43 751.513L289.444 751.453L289.446 751.444C319.587 624.714 358.704 460.245 529.796 313.375C603.258 250.314 670.762 218.27 732.44 208.209C794.12 198.147 849.948 210.074 900.048 234.914ZM1130.7 397.435C1075.25 317.044 997.959 215.735 897.776 166.065C847.676 141.225 791.848 129.298 730.168 139.359C668.49 149.42 600.986 181.465 527.524 244.526C356.432 391.396 317.315 555.864 287.174 682.595C284.376 694.362 281.655 705.803 278.912 716.875C262.769 782.054 245.91 834.347 208.323 864.882C170.756 895.401 112.401 904.241 13.0998 882.266L12.9764 882.823C112.327 904.81 170.908 896.014 208.683 865.326C246.44 834.653 263.33 782.165 279.467 717.012C282.21 705.938 284.931 694.497 287.73 682.731C317.871 556.006 356.949 391.705 527.896 244.96C601.3 181.948 668.711 149.963 730.26 139.923C791.805 129.884 847.513 141.782 897.522 166.576C997.559 216.174 1074.78 317.365 1130.23 397.759L1130.7 397.435ZM892.897 97.8736C993.08 147.544 1070.37 248.853 1125.82 329.244L1125.35 329.568C1069.9 249.174 992.68 147.983 892.644 98.3855C842.634 73.591 786.926 61.6926 725.381 71.7322C663.832 81.7724 596.422 113.757 523.017 176.769C352.07 323.514 312.992 487.815 282.851 614.54C280.052 626.306 277.331 637.748 274.588 648.821C258.451 713.974 241.561 766.462 203.805 797.135C166.029 827.823 107.448 836.619 8.09755 814.632L8.22097 814.075C107.522 836.05 165.877 827.21 203.444 796.691C241.031 766.156 257.89 713.863 274.034 648.684C276.776 637.612 279.497 626.171 282.296 614.404C312.437 487.673 351.553 323.205 522.645 176.335C596.107 113.274 663.611 81.2295 725.289 71.1684C786.969 61.1068 842.797 73.0341 892.897 97.8736ZM1117.89 261.851C1062.44 181.46 985.15 80.1508 884.967 30.4805C834.867 5.64102 779.039 -6.28633 717.359 3.77528C655.681 13.8364 588.177 45.8805 514.715 108.942C343.623 255.812 304.506 420.28 274.365 547.011L274.364 547.015C271.566 558.78 268.845 570.22 266.103 581.291C249.96 646.47 233.101 698.763 195.514 729.298C157.947 759.817 99.5921 768.657 0.29076 746.681L0.167342 747.239C99.5182 769.226 158.099 760.43 195.874 729.742C233.631 699.069 250.521 646.581 266.658 581.428C269.4 570.358 272.12 558.919 274.918 547.157L274.921 547.147C305.062 420.422 344.14 256.121 515.087 109.376C588.491 46.3635 655.902 14.3793 717.45 4.33914C778.996 -5.70053 834.704 6.19785 884.713 30.9923C984.75 80.59 1061.97 181.781 1117.42 262.175L1117.89 261.851Z" fill="url(#paint0_linear_1279_9549)"/>
<defs>
<linearGradient id="paint0_linear_1279_9549" x1="901.951" y1="21.4619" x2="285.157" y2="809.432" gradientUnits="userSpaceOnUse">
<stop stop-color="#3356A6" stop-opacity="0.6"/>
<stop offset="1" stop-color="white" stop-opacity="0.666667"/>
</linearGradient>
</defs>
</svg>
