<svg width="470" height="388" viewBox="0 0 470 388" fill="none" xmlns="http://www.w3.org/2000/svg">
<path d="M235 368.439C335.443 368.439 416.869 363.686 416.869 357.821C416.869 351.957 335.443 347.203 235 347.203C134.557 347.203 53.1312 351.957 53.1312 357.821C53.1312 363.686 134.557 368.439 235 368.439Z" fill="#6F87DE"/>
<path d="M279.18 286.87H201.982C193.297 286.87 186.749 279.826 187.359 271.149L200.238 86.6447C200.847 77.9588 208.38 70.9238 217.056 70.9238H294.253C302.939 70.9238 309.487 77.9682 308.877 86.6447L295.998 271.149C295.398 279.835 287.866 286.87 279.18 286.87Z" fill="#407BFF"/>
<path opacity="0.6" d="M279.18 286.87H201.982C193.297 286.87 186.749 279.826 187.359 271.149L200.238 86.6447C200.847 77.9588 208.38 70.9238 217.056 70.9238H294.253C302.939 70.9238 309.487 77.9682 308.877 86.6447L295.998 271.149C295.398 279.835 287.866 286.87 279.18 286.87Z" fill="white"/>
<path d="M275.175 286.87H197.977C189.291 286.87 182.744 279.826 183.354 271.149L196.232 86.6447C196.842 77.9588 204.374 70.9238 213.051 70.9238H290.248C298.934 70.9238 305.481 77.9682 304.872 86.6447L291.993 271.149C291.383 279.835 283.851 286.87 275.175 286.87Z" fill="#407BFF"/>
<path d="M289.995 74.5254H269.931C268.618 74.5254 267.436 75.5009 267.183 76.8047L267.061 77.4332C266.432 80.613 263.553 83.0049 260.345 83.0049H241.266C238.058 83.0049 235.516 80.6224 235.328 77.4332L235.291 76.8047C235.216 75.5009 234.175 74.5254 232.861 74.5254H212.798C206.11 74.5254 200.303 79.947 199.834 86.6443L186.956 271.149C186.487 277.837 191.533 283.268 198.23 283.268H275.428C282.116 283.268 287.922 277.846 288.391 271.149L301.27 86.6443C301.739 79.947 296.692 74.5254 289.995 74.5254Z" fill="#407BFF"/>
<path opacity="0.6" d="M301.27 86.6443L301.007 90.3963L288.391 271.158C287.922 277.856 282.116 283.277 275.428 283.277H198.23C191.533 283.277 186.496 277.856 186.965 271.158L199.581 90.3963L199.844 86.6443C200.313 79.9564 206.11 74.5254 212.798 74.5254H232.871C234.184 74.5254 235.225 75.5009 235.3 76.8141L235.338 77.4332C235.516 80.613 238.067 83.0049 241.266 83.0049H260.335C263.553 83.0049 266.432 80.613 267.051 77.4332L267.173 76.8141C267.436 75.5009 268.618 74.5254 269.931 74.5254H289.995C296.692 74.5254 301.739 79.9564 301.27 86.6443Z" fill="black"/>
<g opacity="0.7">
<path d="M246.584 76.57C246.528 77.4142 245.787 78.0989 244.943 78.0989C244.099 78.0989 243.461 77.4142 243.517 76.57C243.573 75.7258 244.314 75.041 245.159 75.041C246.012 75.041 246.65 75.7258 246.584 76.57Z" fill="black"/>
<path d="M257.568 75.041C256.959 75.041 252.916 75.041 252.315 75.041C251.471 75.041 250.73 75.7258 250.674 76.57C250.618 77.4142 251.256 78.0989 252.1 78.0989C252.625 78.0989 256.827 78.0989 257.353 78.0989C258.197 78.0989 258.938 77.4142 258.994 76.57C259.05 75.7258 258.412 75.041 257.568 75.041Z" fill="black"/>
</g>
<path d="M208.502 82.9763H210.124L210.237 81.3535H208.614L208.502 82.9763Z" fill="#407BFF"/>
<path d="M211.86 81.3552L211.747 82.9779H213.37L213.482 81.3552L213.595 79.7324H211.972L211.86 81.3552Z" fill="#407BFF"/>
<path d="M215.33 78.0996L215.218 79.7317L215.105 81.3545L214.992 82.9772H216.615L216.728 81.3545L216.84 79.7317L216.953 78.0996H215.33Z" fill="#407BFF"/>
<path d="M285.136 78.2109L285.052 79.4022H284.254L284.086 81.7847H284.883L284.798 82.976H291.937L292.265 78.2109H285.136ZM288.063 81.7847H285.68L285.849 79.4022H288.232L288.063 81.7847Z" fill="#407BFF"/>
<path d="M343.569 347.688C343.538 347.688 343.507 347.688 343.465 347.678C343.183 347.626 342.994 347.343 343.047 347.061C343.078 346.904 346.278 330.936 358.053 321.922C367.035 315.041 376.614 299.376 376.708 299.219C376.855 298.968 377.179 298.895 377.43 299.042C377.681 299.188 377.754 299.512 377.608 299.763C377.514 299.92 367.83 315.763 358.691 322.759C347.229 331.522 344.113 347.103 344.082 347.26C344.04 347.511 343.82 347.688 343.569 347.688Z" fill="#263238"/>
<path d="M356.589 326.763C356.589 326.763 368.729 324.306 364.505 331.689C360.28 339.071 350.607 335.913 350.607 335.913C350.607 335.913 342.335 330.455 346.56 323.867C350.785 317.258 356.589 326.763 356.589 326.763Z" fill="#407BFF"/>
<path opacity="0.1" d="M346.56 323.857C350.785 317.258 356.589 326.764 356.589 326.764C356.589 326.764 357.467 331.511 350.607 335.914C350.607 335.903 342.335 330.455 346.56 323.857Z" fill="black"/>
<path d="M376.708 299.543C376.708 299.543 384.405 292.453 384.583 299.637C384.76 306.832 376.384 308.777 376.384 308.777C376.384 308.777 368.018 308.453 368.186 301.833C368.353 295.225 376.708 299.543 376.708 299.543Z" fill="#407BFF"/>
<path opacity="0.1" d="M368.186 301.835C368.353 295.216 376.708 299.545 376.708 299.545C376.708 299.545 379.427 302.598 376.384 308.778C376.384 308.778 368.018 308.454 368.186 301.835Z" fill="black"/>
<path d="M366.973 312.952C366.973 312.952 369.995 302.934 363.449 305.904C356.902 308.874 358.806 317.271 358.806 317.271C358.806 317.271 362.748 324.654 368.625 321.621C374.502 318.588 366.973 312.952 366.973 312.952Z" fill="#407BFF"/>
<path opacity="0.1" d="M368.625 321.62C374.502 318.587 366.973 312.951 366.973 312.951C366.973 312.951 363.041 311.832 358.806 317.259C358.806 317.259 362.748 324.652 368.625 321.62Z" fill="black"/>
<path d="M333.541 347.689C333.321 347.689 333.123 347.553 333.05 347.344C332.997 347.208 328.041 333.373 316.025 325.812C303.749 318.074 298.185 308.474 298.133 308.38C297.987 308.129 298.081 307.815 298.332 307.669C298.583 307.523 298.896 307.617 299.043 307.868C299.095 307.962 304.543 317.352 316.59 324.934C328.919 332.693 333.991 346.852 334.043 346.999C334.137 347.27 333.991 347.563 333.719 347.668C333.656 347.678 333.604 347.689 333.541 347.689Z" fill="#263238"/>
<path d="M335.831 347.687C335.821 347.687 335.81 347.687 335.789 347.687C335.497 347.666 335.287 347.415 335.308 347.123C335.319 347.008 336.197 335.034 337.138 323.814C338.1 312.436 342.932 306.12 343.141 305.859C343.319 305.628 343.643 305.587 343.873 305.764C344.103 305.942 344.145 306.266 343.967 306.496C343.915 306.559 339.115 312.854 338.184 323.897C337.243 335.107 336.354 347.081 336.354 347.196C336.333 347.478 336.103 347.687 335.831 347.687Z" fill="#263238"/>
<path d="M338.676 315.616C338.676 315.616 342.21 307.857 333.593 309.865C324.977 311.873 327.957 318.607 327.957 318.607C327.957 318.607 333.614 324.652 341.342 322.56C349.06 320.458 338.676 315.616 338.676 315.616Z" fill="#407BFF"/>
<path opacity="0.1" d="M341.342 322.549C349.059 320.458 338.676 315.616 338.676 315.616C338.676 315.616 333.363 314.528 327.957 318.607C327.967 318.596 333.625 324.641 341.342 322.549Z" fill="black"/>
<path d="M305.024 316.954C305.024 316.954 308.559 309.195 299.942 311.203C291.325 313.211 294.306 319.945 294.306 319.945C294.306 319.945 299.963 325.989 307.691 323.898C315.408 321.796 305.024 316.954 305.024 316.954Z" fill="#407BFF"/>
<path opacity="0.1" d="M307.691 323.887C315.408 321.796 305.024 316.954 305.024 316.954C305.024 316.954 299.712 315.866 294.306 319.945C294.306 319.945 299.973 325.978 307.691 323.887Z" fill="black"/>
<path d="M324.422 333.61C324.422 333.61 326.148 325.255 318.19 329.124C310.232 332.993 314.634 338.891 314.634 338.891C314.634 338.891 321.494 343.534 328.553 339.78C335.612 336.037 324.422 333.61 324.422 333.61Z" fill="#407BFF"/>
<path opacity="0.1" d="M328.553 339.781C335.612 336.027 324.422 333.611 324.422 333.611C324.422 333.611 318.995 333.737 314.634 338.892C314.634 338.903 321.494 343.535 328.553 339.781Z" fill="black"/>
<path d="M337.776 328.99C337.776 328.99 340.181 323.698 334.315 325.068C328.438 326.438 330.477 331.029 330.477 331.029C330.477 331.029 334.336 335.149 339.596 333.716C344.856 332.284 337.776 328.99 337.776 328.99Z" fill="#407BFF"/>
<path opacity="0.1" d="M339.585 333.717C344.845 332.295 337.766 328.99 337.766 328.99C337.766 328.99 334.137 328.248 330.456 331.029C330.467 331.019 334.325 335.139 339.585 333.717Z" fill="black"/>
<path d="M343.005 305.723C343.005 305.723 339.983 297.629 346.989 299.888C353.995 302.147 351.726 309.028 351.726 309.028C351.726 309.028 347.282 315.145 340.997 312.824C334.723 310.502 343.005 305.723 343.005 305.723Z" fill="#407BFF"/>
<path opacity="0.1" d="M340.997 312.834C334.723 310.513 343.005 305.734 343.005 305.734C343.005 305.734 347.282 304.73 351.726 309.049C351.726 309.038 347.282 315.156 340.997 312.834Z" fill="black"/>
<path d="M299.053 305.064C299.053 305.064 302.494 300.013 297.296 300.389C292.11 300.766 292.507 305.879 292.507 305.879C292.507 305.879 294.536 310.836 299.241 310.292C303.947 309.738 299.053 305.064 299.053 305.064Z" fill="#407BFF"/>
<path opacity="0.1" d="M299.241 310.284C303.947 309.74 299.053 305.066 299.053 305.066C299.053 305.066 296.282 303.654 292.507 305.871C292.507 305.882 294.536 310.828 299.241 310.284Z" fill="black"/>
<path d="M314.467 322.685C314.467 322.685 302.201 321.012 308.611 315.428C315.032 309.844 323.126 316.024 323.126 316.024C323.126 316.024 329.139 323.898 322.979 328.74C316.82 333.561 314.467 322.685 314.467 322.685Z" fill="#407BFF"/>
<path opacity="0.1" d="M322.979 328.729C316.82 333.56 314.467 322.685 314.467 322.685C314.467 322.685 315.199 317.906 323.126 316.023C323.126 316.013 329.128 323.887 322.979 328.729Z" fill="black"/>
<path d="M326.367 359.432H346.173C348.056 359.432 349.666 358.083 350.001 356.232L352.259 343.652H320.292L322.551 356.232C322.875 358.073 324.485 359.432 326.367 359.432Z" fill="#407BFF"/>
<path opacity="0.6" d="M326.367 359.432H346.173C348.056 359.432 349.666 358.083 350.001 356.232L352.259 343.652H320.292L322.551 356.232C322.875 358.073 324.485 359.432 326.367 359.432Z" fill="black"/>
<path d="M159.21 338.703L156.987 353.261H164.022L168.646 338.703H159.21Z" fill="#FFC3BD"/>
<path d="M156.095 350.016L165.494 349.8C165.822 349.781 166.085 350.016 166.085 350.316L166.104 357.219C166.057 357.97 165.372 358.608 164.556 358.626C161.283 358.655 159.735 358.505 155.598 358.608C151.171 358.589 146.781 358.298 142.438 357.745C139.09 357.173 139.99 354.03 141.51 353.974C148.348 353.721 152.165 352.295 154.623 350.532C155.045 350.213 155.57 350.034 156.095 350.016Z" fill="#263238"/>
<path opacity="0.2" d="M158.319 344.547L159.21 338.703H168.646L166.376 345.982L158.319 344.547Z" fill="black"/>
<path d="M221.127 257.135C221.127 257.135 163.928 257.707 163.037 275.82C161.77 301.868 157.371 341.583 157.371 341.583L168.158 344.547C168.158 344.547 183.541 305.17 184.142 284.834C200.228 281.626 241.594 284.834 246.453 274.263C248.835 268.766 249.464 262.875 248.291 257.135H221.127Z" fill="#407BFF"/>
<path opacity="0.3" d="M221.127 257.135C221.127 257.135 163.928 257.707 163.037 275.82C161.77 301.868 157.371 341.583 157.371 341.583L168.158 344.547C168.158 344.547 183.541 305.17 184.142 284.834C200.228 281.626 241.594 284.834 246.453 274.263C248.835 268.766 249.464 262.875 248.291 257.135H221.127Z" fill="white"/>
<path d="M149.295 337.381L141.594 348.899L145.993 355.231L156.499 343.74L149.295 337.381Z" fill="#FFC3BD"/>
<path opacity="0.2" d="M152.55 348.065L156.499 343.741L149.942 336.434L145.712 342.728L152.55 348.065Z" fill="black"/>
<path d="M141.969 348.336L148.113 352.895C148.413 353.064 148.516 353.43 148.357 353.711C148.357 353.711 148.357 353.72 148.348 353.72L144.764 360.193C144.324 360.877 143.395 361.056 142.673 360.615C139.821 358.72 138.545 357.669 134.897 355.324C132.664 353.889 129.756 352.201 126.661 350.212C123.566 348.224 125.517 345.391 126.98 345.982C133.621 348.58 135.807 347.923 138.883 347.708C139.427 347.661 141.491 348.055 141.969 348.336Z" fill="#263238"/>
<path d="M146.687 340.063L155.139 346.911C155.139 346.911 173.711 327.016 192.246 292.685L192.011 292.253C208.689 290.95 254.52 286.41 259.988 279.694C265.776 272.602 265.372 264.498 263.187 257.135L236.032 257.144C236.032 257.144 192.621 263.569 178.439 277.18C167.736 286.644 146.687 340.063 146.687 340.063Z" fill="#407BFF"/>
<g opacity="0.4">
<path d="M146.687 340.063L155.139 346.911C155.139 346.911 173.711 327.016 192.246 292.685L192.011 292.253C208.689 290.95 254.52 286.41 259.988 279.694C265.776 272.602 265.372 264.498 263.187 257.135L236.032 257.144C236.032 257.144 192.621 263.569 178.439 277.18C167.736 286.644 146.687 340.063 146.687 340.063Z" fill="white"/>
</g>
<path d="M233.152 195.614C226.868 196.552 220.583 197.49 214.298 198.428C203.746 200.004 192.809 194.591 183.738 188.973L179.358 193.55C179.358 193.55 198.577 207.751 208.145 207.789C213.567 207.808 222.046 206.363 228.368 205.116C232.683 204.262 235.028 199.581 233.152 195.614Z" fill="#FF8B7B"/>
<path d="M172.51 180.624C173.036 183.701 173.552 186.787 174.077 189.863C175.831 190.98 177.351 192.49 179.105 193.606C180.784 192.584 182.782 190.942 183.804 189.254C183.476 187.819 182.894 186.44 182.575 185.005C182.031 182.622 179.123 181.065 177.519 179.227C176.075 179.564 173.946 180.286 172.51 180.624Z" fill="#FF8B7B"/>
<path d="M229.147 210.17L215.03 209.804L213.088 196.682C213.088 196.682 220.939 195.134 228.293 193.643C228.603 197.901 228.837 205.902 229.147 210.17Z" fill="#407BFF"/>
<path opacity="0.1" d="M229.147 210.17L215.03 209.804L213.088 196.682C213.088 196.682 220.939 195.134 228.293 193.643C228.603 197.901 228.837 205.902 229.147 210.17Z" fill="black"/>
<path opacity="0.2" d="M215.03 209.795L228.19 207.365L228.246 210.189L215.03 209.795Z" fill="black"/>
<path d="M264.275 258.59C259.247 259.772 249.567 258.825 240.45 258.487C234.109 258.243 225.498 257.136 225.498 257.136C226.173 246.499 225.883 235.834 223.003 216.549C221.634 207.366 228.378 193.53 228.406 193.53C229.456 193.362 230.582 193.212 231.755 193.071C232.411 192.996 233.068 192.94 233.743 192.883C239.212 192.658 244.68 192.752 250.139 193.155C251.171 193.221 252.212 193.324 253.244 193.427C254.257 193.54 255.111 193.652 255.974 193.774L257.184 193.953C260.307 194.45 262.437 197.367 261.939 200.481C261.939 200.5 261.939 200.519 261.93 200.547C261.433 204.927 261.039 208.782 260.757 212.3C260.748 212.412 260.739 212.534 260.739 212.647C260.41 216.549 260.232 220.057 260.204 223.425C260.101 233.968 261.377 243.047 264.275 258.59Z" fill="#407BFF"/>
<path d="M260.823 211.098C260.804 211.502 260.776 211.915 260.767 212.318C260.758 212.43 260.748 212.552 260.748 212.665C260.42 216.567 260.242 220.075 260.213 223.443C257.887 219.015 255.598 212.731 255.749 209.598L260.823 211.098Z" fill="#407BFF"/>
<path opacity="0.2" d="M260.823 211.098C260.804 211.502 260.776 211.915 260.767 212.318C260.758 212.384 260.757 212.44 260.757 212.505C260.429 216.483 260.242 220.038 260.213 223.443C257.887 219.015 255.598 212.731 255.749 209.598L260.823 211.098Z" fill="black"/>
<path d="M248.798 174.715C247.672 179.977 246.491 189.61 250.111 193.193C247.203 195.998 243.395 199.215 237.139 199.337C230.873 199.459 232.045 195.135 233.734 192.921C239.643 191.608 239.559 187.256 238.602 183.138L248.798 174.715Z" fill="#FF8B7B"/>
<path opacity="0.2" d="M244.652 178.119L238.621 183.1C238.855 184.057 239.015 185.032 239.08 186.017C241.725 185.595 243.986 183.878 245.093 181.44C245.656 179.939 245.215 178.335 244.652 178.119Z" fill="black"/>
<path d="M235.46 159.649C231.07 167.491 228.64 176.186 227.684 185.125C227.562 186.288 227.477 187.489 227.815 188.605C228.153 189.721 228.997 190.762 230.141 190.997C229.166 190.153 229.372 188.774 230.347 187.93C230.122 189.121 230.554 191.016 231.332 191.944C232.111 192.873 233.312 193.436 234.531 193.426C234.315 192.882 234.268 192.31 234.39 191.738C235.253 192.929 236.989 193.586 238.208 192.76C240.253 191.382 240.3 188.333 240.722 185.904C242.213 177.443 243.705 168.992 245.187 160.531C244.202 159.274 242.663 158.655 241.069 158.589C239.474 158.523 237.908 158.927 236.36 159.321C236.473 159.321 236.595 159.33 236.707 159.33" fill="#263238"/>
<path d="M253.469 168.889C251.265 175.699 250.308 179.789 245.909 182.434C239.277 186.411 231.558 181.036 231.698 173.682C231.82 167.088 235.413 157.07 242.889 156.067C248.226 155.326 253.15 159.04 253.901 164.377C254.116 165.897 253.966 167.445 253.469 168.889Z" fill="#FF8B7B"/>
<path d="M248.882 170.672C248.385 172.032 247.785 173.345 247.091 174.611C248.207 174.171 250.327 173.983 251.528 174.058C252.053 174.086 252.578 174.171 253.103 174.142C253.629 174.114 254.173 173.964 254.548 173.589C255.017 173.12 255.139 172.379 254.951 171.741C254.754 171.103 254.295 170.578 253.741 170.212C253.141 169.8 252.409 169.546 251.687 169.574C250.946 169.603 249.136 169.987 248.882 170.672Z" fill="#263238"/>
<path d="M254.023 176.112C252.841 177.228 251.256 177.828 249.623 177.781C247.466 177.706 247.035 175.615 248.188 173.917C249.22 172.388 251.593 170.596 253.488 171.506C255.383 172.416 255.448 174.761 254.023 176.112Z" fill="#FF8B7B"/>
<path d="M238.067 167.295C236.96 168.843 235.647 170.231 234.165 171.431C234.925 172.613 236.726 172.632 236.726 172.632L238.067 167.295Z" fill="#FF5652"/>
<path d="M237.204 175.398C238.508 175.567 239.831 175.201 240.853 174.376C240.928 174.31 240.928 174.207 240.862 174.132C240.797 174.057 240.694 174.057 240.619 174.122C239.465 175.023 237.945 175.323 236.529 174.929C236.435 174.91 236.351 174.957 236.323 175.051C236.304 175.145 236.351 175.239 236.444 175.267C236.698 175.314 236.951 175.361 237.204 175.398Z" fill="#263238"/>
<path d="M244.98 166.563C245.037 166.572 245.102 166.563 245.149 166.544C245.318 166.469 245.402 166.272 245.337 166.103V166.094C244.943 165.062 244.07 164.293 243.001 164.03C242.823 163.993 242.645 164.115 242.607 164.302C242.607 164.302 242.607 164.302 242.607 164.312C242.57 164.49 242.692 164.668 242.87 164.706C243.714 164.921 244.399 165.54 244.708 166.347C244.746 166.478 244.858 166.553 244.98 166.563Z" fill="#263238"/>
<path d="M233.949 163.58C234.062 163.589 234.175 163.542 234.25 163.458C234.794 162.783 235.628 162.398 236.501 162.445C236.688 162.464 236.857 162.332 236.885 162.145C236.914 161.957 236.782 161.788 236.595 161.77C235.497 161.694 234.428 162.163 233.734 163.017C233.612 163.158 233.631 163.374 233.771 163.495C233.818 163.542 233.884 163.57 233.949 163.58Z" fill="#263238"/>
<path d="M255.824 197.095C255.777 197.067 255.702 197.086 255.692 197.133C253.769 205.162 254.145 213.538 252.325 221.821C251.059 227.608 239.54 227.515 228.509 232.045L229.775 239.014C229.775 239.014 252.709 237.804 259.022 229.175C262.596 224.279 263.393 221.868 264.275 214.72C265.185 207.376 265.644 197.996 260.823 197.095H255.824Z" fill="#FF8B7B"/>
<path d="M219.12 241.463H225.16C226.399 241.463 227.196 240.459 226.933 239.212L223.575 223.425C223.313 222.187 222.093 221.174 220.846 221.174H214.805C213.567 221.174 212.769 222.177 213.032 223.425L216.39 239.212C216.653 240.459 217.872 241.463 219.12 241.463Z" fill="#407BFF"/>
<path opacity="0.3" d="M219.12 241.463H225.16C226.399 241.463 227.196 240.459 226.933 239.212L223.575 223.425C223.313 222.187 222.093 221.174 220.846 221.174H214.805C213.567 221.174 212.769 222.177 213.032 223.425L216.39 239.212C216.653 240.459 217.872 241.463 219.12 241.463Z" fill="white"/>
<path d="M218.229 241.463H224.269C225.507 241.463 226.305 240.459 226.042 239.212L222.684 223.425C222.421 222.187 221.202 221.174 219.954 221.174H213.914C212.676 221.174 211.878 222.177 212.141 223.425L215.499 239.212C215.762 240.459 216.99 241.463 218.229 241.463Z" fill="#407BFF"/>
<path opacity="0.6" d="M218.229 241.463H224.269C225.507 241.463 226.305 240.459 226.042 239.212L222.684 223.425C222.421 222.187 221.202 221.174 219.954 221.174H213.914C212.676 221.174 211.878 222.177 212.141 223.425L215.499 239.212C215.762 240.459 216.99 241.463 218.229 241.463Z" fill="white"/>
<path d="M220.63 225.853H220.039C219.204 225.853 218.388 225.178 218.21 224.343L218.088 223.752C217.91 222.918 218.444 222.242 219.279 222.242H219.87C220.705 222.242 221.521 222.918 221.699 223.752L221.821 224.343C221.999 225.178 221.465 225.853 220.63 225.853Z" fill="#407BFF"/>
<path d="M219.176 223.142C219.251 223.489 219.589 223.771 219.936 223.771C220.283 223.771 220.499 223.489 220.433 223.142C220.358 222.795 220.02 222.514 219.673 222.514C219.326 222.514 219.101 222.804 219.176 223.142Z" fill="#263238"/>
<path d="M219.56 224.953C219.636 225.3 219.973 225.581 220.32 225.581C220.667 225.581 220.883 225.3 220.817 224.953C220.742 224.606 220.405 224.324 220.058 224.324C219.711 224.324 219.485 224.606 219.56 224.953Z" fill="#263238"/>
<path d="M219.157 238.077C219.767 238.592 227.468 239.324 229.775 239.015C230.479 236.932 229.86 234.822 229.513 232.655C228.199 231.661 226.708 230.901 225.395 229.916C223.219 228.274 220.067 229.044 217.375 228.631C216.775 229.438 216.587 231.398 216.671 233.105C216.765 235.028 217.685 236.829 219.157 238.077Z" fill="#FF8B7B"/>
<path d="M252.015 197.367C251.865 206.522 252.353 206.691 250.937 215.733L266.414 214.551C266.414 214.551 268.055 208.004 266.292 202.376C264.988 198.221 262.662 194.506 257.662 193.493C255.336 193.015 252.062 194.544 252.015 197.367Z" fill="#407BFF"/>
<path opacity="0.1" d="M252.015 197.367C251.865 206.522 252.353 206.691 250.937 215.733L266.414 214.551C266.414 214.551 268.055 208.004 266.292 202.376C264.988 198.221 262.662 194.506 257.662 193.493C255.336 193.015 252.062 194.544 252.015 197.367Z" fill="white"/>
<path d="M259.566 176.298C259.463 176.646 259.097 176.871 258.731 176.918C258.638 176.927 258.347 176.908 257.953 176.861C256.921 176.749 255.27 176.486 255.007 176.411C253.647 173.606 254.36 171.233 252.325 168.879C252.981 169.188 253.619 169.442 254.266 169.695C254.895 169.948 255.523 170.192 256.18 170.502C257.165 171.965 258.431 173.691 259.304 175.22C259.491 175.557 259.679 175.933 259.566 176.298Z" fill="#263238"/>
<path d="M248.423 161.056C248.723 162.867 248.629 164.837 248.207 166.628C246.209 165.878 244.633 163.983 244.024 161.938C243.892 162.839 244.014 163.795 244.427 164.611C242.86 164.105 241.707 162.679 241.331 161.084C241.125 161.919 241.059 162.651 241.369 163.458C239.915 163.336 238.668 162.041 238.32 160.625C237.955 161.178 237.861 161.75 238.002 162.398C236.942 161.807 236.323 160.512 236.529 159.312C236.735 158.111 237.758 157.107 238.958 156.91C240.75 156.62 242.635 156.779 244.23 157.651C245.824 158.524 247.138 159.781 248.423 161.056Z" fill="#263238"/>
<path opacity="0.2" d="M260.101 176.599C259.988 176.955 259.623 177.181 259.247 177.237C259.144 177.246 258.853 177.227 258.459 177.181C257.409 177.059 255.72 176.796 255.448 176.721C254.06 173.86 254.782 171.431 252.709 169.029C253.385 169.348 254.032 169.601 254.689 169.864C255.336 170.117 255.974 170.371 256.64 170.69C257.653 172.181 258.938 173.944 259.829 175.511C260.026 175.83 260.223 176.214 260.101 176.599Z" fill="black"/>
<path d="M260.101 176.598C259.988 176.955 259.623 177.18 259.247 177.236C259.144 177.245 258.853 177.227 258.459 177.18C257.109 174.994 255.683 172.856 254.182 170.764C254.342 170.435 254.52 170.154 254.689 169.863C255.336 170.117 255.974 170.37 256.64 170.689C257.653 172.18 258.938 173.944 259.829 175.51C260.026 175.829 260.223 176.214 260.101 176.598Z" fill="#407BFF"/>
<path d="M256.612 170.389C256.612 170.436 255.552 172.772 255.552 172.847C255.43 172.669 255.308 172.481 255.176 172.293C253.441 169.714 248.198 163.467 247.438 162.857C244.164 160.212 240.206 157.829 235.178 160.306C235.816 158.542 241.228 145.504 253.15 155.25C255.636 157.276 257.287 159.799 258.009 161.75C258.91 164.142 258.788 167.435 256.612 170.389Z" fill="#407BFF"/>
<path d="M245.065 159.19C245.44 158.609 245.318 157.793 244.896 157.239C244.474 156.686 243.808 156.358 243.132 156.198C242.457 156.029 241.725 156.011 241.088 156.283C240.45 156.555 239.924 157.155 239.887 157.849C241.847 157.783 243.311 158.299 244.933 159.397L245.065 159.19Z" fill="#263238"/>
<path d="M242.485 168.121C242.316 168.674 241.922 169.059 241.557 168.965C241.191 168.871 241.013 168.337 241.153 167.774C241.303 167.211 241.716 166.827 242.082 166.92C242.457 167.014 242.635 167.558 242.485 168.121Z" fill="#263238"/>
<path d="M242.054 167.163C242.091 167.21 242.044 167.285 241.979 167.295C241.922 167.304 241.866 167.266 241.81 167.229C241.528 167.004 241.303 166.713 241.163 166.385C241.453 166.629 241.772 166.788 242.11 166.957C242.101 167.023 242.073 167.107 242.054 167.163Z" fill="#263238"/>
<path d="M236.126 166.469C235.957 167.023 235.563 167.407 235.197 167.313C234.831 167.22 234.644 166.685 234.784 166.122C234.934 165.559 235.347 165.184 235.722 165.278C236.097 165.381 236.276 165.907 236.126 166.469Z" fill="#263238"/>
<path d="M235.591 165.53C235.628 165.577 235.582 165.652 235.516 165.662C235.46 165.671 235.403 165.634 235.347 165.596C235.066 165.371 234.841 165.08 234.7 164.752C234.991 164.996 235.31 165.155 235.647 165.324C235.638 165.39 235.61 165.474 235.591 165.53Z" fill="#263238"/>
<path d="M250.364 171.468C249.708 170.324 248.648 169.499 247.372 169.152L244.539 168.382C244.868 166.769 243.902 165.146 242.288 164.705C240.722 164.283 239.118 165.118 238.536 166.6C238.349 166.459 238.105 166.394 237.87 166.422C238.114 164.855 237.157 163.317 235.6 162.886C233.921 162.426 232.177 163.42 231.726 165.099C231.267 166.778 232.261 168.523 233.94 168.973C235.582 169.424 237.279 168.476 237.776 166.863C238.002 166.769 238.255 166.835 238.405 167.032C238.02 168.673 238.996 170.352 240.637 170.802C242.251 171.243 243.911 170.333 244.446 168.776L247.278 169.545C248.451 169.864 249.426 170.624 250.027 171.675L250.693 172.838L251.04 172.641L250.364 171.468ZM234.043 168.579C232.58 168.176 231.708 166.666 232.111 165.203C232.514 163.739 234.024 162.867 235.488 163.27C236.951 163.674 237.823 165.184 237.42 166.647C237.026 168.11 235.506 168.983 234.043 168.579ZM240.741 170.408C239.277 170.005 238.405 168.495 238.808 167.032C239.212 165.568 240.722 164.696 242.185 165.099C243.648 165.503 244.521 167.013 244.117 168.476C243.723 169.939 242.204 170.802 240.741 170.408Z" fill="#263238"/>
<path d="M255.552 182.865C255.552 185.566 255.355 188.399 253.919 190.688C251.781 194.093 247.372 195.396 243.358 195.274C244.586 195.171 245.712 194.261 246.078 193.07C244.952 193.558 243.845 193.455 242.635 193.342C243.47 193.136 244.108 192.423 244.446 191.626C244.774 190.819 244.849 189.947 244.933 189.084C245.684 180.341 246.472 171.402 247.213 162.66C248.01 163.176 249.614 165.033 249.942 165.408C251.856 167.594 253.094 169.207 254.792 171.721C254.811 171.824 255.561 179.347 255.552 182.865Z" fill="#263238"/>
<path d="M174.518 84.0762H156.339C150.627 84.0762 145.993 79.4425 145.993 73.73V55.561C145.993 49.8486 150.627 45.2148 156.339 45.2148H174.518C180.23 45.2148 184.864 49.8486 184.864 55.561V73.7394C184.864 79.4425 180.23 84.0762 174.518 84.0762Z" fill="#407BFF"/>
<path d="M167.398 73.4665C167.398 74.6015 166.47 75.5301 165.335 75.5301C164.2 75.5301 163.281 74.6015 163.281 73.4665C163.281 73.4009 163.281 73.3352 163.29 73.2695H167.398C167.398 73.3352 167.398 73.4009 167.398 73.4665Z" fill="white"/>
<path d="M164.303 55.4294C164.303 54.5102 164.913 53.7598 165.654 53.7598C166.404 53.7598 167.004 54.5102 167.004 55.4294C167.004 55.4857 167.004 55.5326 166.995 55.5889H164.303C164.303 55.5326 164.303 55.4763 164.303 55.4294Z" fill="white"/>
<path d="M173.889 72.5379H156.968L158.159 69.4987H158.225V62.52C158.225 59.4059 160.166 56.6388 162.98 55.7477C164.35 55.3162 166.836 55.3162 168.017 55.7946C168.955 56.1791 169.809 56.7232 170.512 57.4173C171.816 58.7211 172.623 60.5221 172.623 62.5106V69.4894H172.707L173.889 72.5379Z" fill="white"/>
<path d="M113.332 125.966H95.1536C89.4412 125.966 84.8074 121.333 84.8074 115.62V97.4418C84.8074 91.7294 89.4412 87.0957 95.1536 87.0957H113.332C119.044 87.0957 123.678 91.7294 123.678 97.4418V115.62C123.669 121.333 119.044 125.966 113.332 125.966Z" fill="#407BFF"/>
<path opacity="0.6" d="M113.332 125.966H95.1536C89.4412 125.966 84.8074 121.333 84.8074 115.62V97.4418C84.8074 91.7294 89.4412 87.0957 95.1536 87.0957H113.332C119.044 87.0957 123.678 91.7294 123.678 97.4418V115.62C123.669 121.333 119.044 125.966 113.332 125.966Z" fill="white"/>
<path fill-rule="evenodd" clip-rule="evenodd" d="M100.838 111.756C98.8493 111.681 97.1515 110.433 96.5231 108.576C97.1703 108.707 97.8457 108.679 98.5023 108.51H98.5679C97.3016 108.248 96.2229 107.488 95.5569 106.409C95.0973 105.687 94.8628 104.843 94.8628 103.97C95.4725 104.308 96.1572 104.496 96.8701 104.533C95.9134 103.877 95.2474 102.892 94.9848 101.747C94.694 100.65 94.8534 99.4493 95.435 98.4175C97.7706 101.26 101.204 102.986 104.965 103.22C104.974 103.032 104.899 102.873 104.881 102.714C104.721 101.691 104.946 100.622 105.518 99.7119C106.194 98.6051 107.338 97.8547 108.605 97.6765C110.096 97.4326 111.587 97.9016 112.61 98.9615C112.666 99.0366 112.769 99.0647 112.863 99.0366C113.792 98.8396 114.692 98.5019 115.518 98.0235H115.583C115.264 98.9897 114.617 99.8433 113.764 100.415C114.636 100.312 115.499 100.087 116.315 99.7213C116.137 99.9558 115.977 100.19 115.799 100.415C115.321 101.016 114.767 101.55 114.148 102.001C114.092 102.029 114.064 102.085 114.073 102.141C114.092 102.817 114.054 103.501 113.97 104.177C113.82 105.574 113.435 106.953 112.844 108.248C112.244 109.58 111.419 110.808 110.405 111.868C108.698 113.66 106.503 114.889 104.121 115.386C103.277 115.564 102.423 115.667 101.56 115.695C98.9337 115.77 96.373 115.086 94.1968 113.726L94.0749 113.651C95.6132 113.838 97.189 113.622 98.6617 113.022C99.4215 112.694 100.163 112.272 100.838 111.756Z" fill="#407BFF"/>
<path d="M131.492 252.652H113.313C107.601 252.652 102.967 248.018 102.967 242.306V224.127C102.967 218.415 107.601 213.781 113.313 213.781H131.492C137.204 213.781 141.838 218.415 141.838 224.127V242.306C141.838 248.018 137.204 252.652 131.492 252.652Z" fill="#407BFF"/>
<path d="M130.591 227.017L130.619 244.266C130.619 244.492 130.441 244.67 130.216 244.67L114.27 244.698C114.045 244.698 113.867 244.52 113.867 244.295L113.829 221.858C113.829 221.633 114.007 221.454 114.232 221.454L124.982 221.436L130.591 227.017Z" fill="#407BFF"/>
<g opacity="0.7">
<path d="M130.591 227.017L130.619 244.266C130.619 244.492 130.441 244.67 130.216 244.67L114.27 244.698C114.045 244.698 113.867 244.52 113.867 244.295L113.829 221.858C113.829 221.633 114.007 221.454 114.232 221.454L124.982 221.436L130.591 227.017Z" fill="white"/>
</g>
<path d="M124.982 221.426L124.991 226.632C124.991 226.857 125.17 227.035 125.395 227.035L130.582 227.026L124.982 221.426Z" fill="#407BFF"/>
<path d="M124.982 221.426L124.991 226.632C124.991 226.857 125.17 227.035 125.395 227.035L130.582 227.026L124.982 221.426Z" fill="white"/>
<path d="M128.687 230.102L115.818 230.167C115.621 230.167 115.452 230.327 115.461 230.533V230.655C115.461 230.852 115.621 231.021 115.827 231.011L128.696 230.946C128.893 230.946 129.062 230.777 129.053 230.58V230.458C129.053 230.261 128.884 230.102 128.687 230.102Z" fill="#407BFF"/>
<path d="M128.696 233.562L115.827 233.628C115.63 233.628 115.461 233.788 115.471 233.994V234.116C115.471 234.313 115.63 234.482 115.836 234.472L128.706 234.407C128.903 234.407 129.072 234.247 129.062 234.041V233.919C129.062 233.722 128.893 233.562 128.696 233.562Z" fill="#407BFF"/>
<path d="M128.706 237.023L115.836 237.089C115.639 237.089 115.471 237.258 115.48 237.455V237.577C115.48 237.774 115.639 237.943 115.846 237.933L128.715 237.868C128.912 237.868 129.081 237.708 129.072 237.502V237.38C129.072 237.183 128.912 237.023 128.706 237.023Z" fill="#407BFF"/>
<path d="M122.074 240.484L115.855 240.55C115.658 240.55 115.489 240.709 115.499 240.916V241.038C115.499 241.235 115.658 241.404 115.865 241.394L122.084 241.329C122.28 241.329 122.449 241.16 122.44 240.963V240.841C122.431 240.644 122.271 240.484 122.074 240.484Z" fill="#407BFF"/>
<path d="M168.261 182.724H150.083C144.37 182.724 139.737 178.091 139.737 172.378V154.2C139.737 148.487 144.37 143.854 150.083 143.854H168.261C173.974 143.854 178.607 148.487 178.607 154.2V172.378C178.607 178.091 173.974 182.724 168.261 182.724Z" fill="#407BFF"/>
<path opacity="0.6" d="M168.261 182.724H150.083C144.37 182.724 139.737 178.091 139.737 172.378V154.2C139.737 148.487 144.37 143.854 150.083 143.854H168.261C173.974 143.854 178.607 148.487 178.607 154.2V172.378C178.607 178.091 173.974 182.724 168.261 182.724Z" fill="white"/>
<path d="M166.085 176.6H152.569C151.377 176.6 150.402 175.634 150.402 174.433V151.499C150.402 150.308 151.368 149.332 152.569 149.332H166.085C167.276 149.332 168.252 150.298 168.252 151.499V174.433C168.243 175.634 167.276 176.6 166.085 176.6Z" fill="white"/>
<path d="M165.344 171.685L163.628 171.994L164.05 170.306L172.876 162.042C173.251 161.686 173.852 161.704 174.208 162.089C174.565 162.464 174.546 163.065 174.161 163.421L165.344 171.685Z" fill="#407BFF"/>
<path d="M157.821 173.71C157.493 173.71 157.174 173.597 156.958 173.372C156.499 172.913 156.508 172.153 156.987 171.393C157.465 170.624 158.112 169.949 158.881 169.461C159.322 169.179 159.744 168.992 160.157 168.907C160.082 168.748 159.979 168.607 159.838 168.504C159.153 167.979 158.046 168.429 157.315 168.973C156.03 169.93 155.017 171.281 154.463 172.772C154.369 173.016 154.107 173.138 153.863 173.044C153.619 172.95 153.497 172.688 153.591 172.444C154.21 170.774 155.336 169.273 156.761 168.213C157.803 167.435 159.313 166.909 160.42 167.754C160.804 168.044 161.039 168.457 161.161 168.898C161.92 169.067 162.671 169.742 162.643 170.633C162.624 171.037 162.455 171.374 162.305 171.674C162.267 171.759 162.221 171.834 162.183 171.918C162.061 172.19 162.033 172.453 162.127 172.556C162.211 172.659 162.455 172.65 162.624 172.547C162.877 172.397 163.074 172.078 163.252 171.806C163.393 171.59 163.674 171.524 163.9 171.656C164.115 171.796 164.181 172.087 164.05 172.303C163.834 172.65 163.562 173.081 163.112 173.353C162.615 173.644 161.855 173.682 161.414 173.157C161.076 172.763 161.048 172.162 161.329 171.534C161.376 171.44 161.423 171.346 161.47 171.252C161.583 171.018 161.695 170.793 161.705 170.596C161.714 170.314 161.508 170.061 161.236 169.92C161.208 170.192 161.142 170.464 161.048 170.699C160.682 171.628 159.969 172.312 159.332 172.922C159.088 173.157 158.787 173.447 158.394 173.597C158.197 173.672 158.009 173.71 157.821 173.71ZM160.279 169.836C159.997 169.902 159.697 170.042 159.369 170.249C158.722 170.661 158.168 171.234 157.774 171.881C157.596 172.181 157.474 172.566 157.615 172.706C157.69 172.781 157.878 172.791 158.028 172.725C158.253 172.641 158.459 172.434 158.666 172.237C159.228 171.693 159.866 171.084 160.157 170.343C160.223 170.192 160.26 170.014 160.279 169.836Z" fill="#407BFF"/>
<path d="M165.747 152.784L152.878 152.849C152.681 152.849 152.512 153.018 152.522 153.215V153.337C152.522 153.534 152.681 153.703 152.887 153.693L165.757 153.628C165.954 153.628 166.123 153.468 166.113 153.262V153.14C166.104 152.943 165.944 152.774 165.747 152.784Z" fill="#407BFF"/>
<path d="M165.757 156.244L152.887 156.31C152.691 156.31 152.522 156.479 152.531 156.676V156.798C152.531 156.995 152.691 157.163 152.897 157.154L165.766 157.088C165.963 157.088 166.132 156.919 166.123 156.723V156.601C166.123 156.404 165.954 156.244 165.757 156.244Z" fill="#407BFF"/>
<path d="M165.766 159.705L152.897 159.771C152.7 159.771 152.531 159.94 152.54 160.137V160.259C152.54 160.455 152.7 160.624 152.906 160.615L165.776 160.549C165.973 160.549 166.141 160.38 166.132 160.183V160.062C166.132 159.865 165.963 159.705 165.766 159.705Z" fill="#407BFF"/>
<path d="M159.135 163.168L152.916 163.234C152.719 163.234 152.55 163.402 152.559 163.599V163.721C152.559 163.918 152.719 164.087 152.925 164.078L159.144 164.012C159.341 164.012 159.51 163.843 159.5 163.646V163.524C159.491 163.327 159.332 163.168 159.135 163.168Z" fill="#407BFF"/>
<path d="M307.104 65.8399H288.926C283.213 65.8399 278.579 61.2061 278.579 55.4937V37.3247C278.579 31.6122 283.213 26.9785 288.926 26.9785H307.104C312.816 26.9785 317.45 31.6122 317.45 37.3247V55.5031C317.441 61.2061 312.816 65.8399 307.104 65.8399Z" fill="#407BFF"/>
<path opacity="0.6" d="M307.104 65.8399H288.926C283.213 65.8399 278.579 61.2061 278.579 55.4937V37.3247C278.579 31.6122 283.213 26.9785 288.926 26.9785H307.104C312.816 26.9785 317.45 31.6122 317.45 37.3247V55.5031C317.441 61.2061 312.816 65.8399 307.104 65.8399Z" fill="white"/>
<path d="M298.165 32.8594C293.24 32.8594 289.245 36.8553 289.245 41.7798C289.245 46.7043 298.165 59.2547 298.165 59.2547C298.165 59.2547 307.085 46.7043 307.085 41.7798C307.085 36.8553 303.089 32.8594 298.165 32.8594ZM298.24 46.0664C295.904 46.0664 294.019 44.1717 294.019 41.8454C294.019 39.5098 295.914 37.6244 298.24 37.6244C300.576 37.6244 302.461 39.5192 302.461 41.8454C302.47 44.181 300.576 46.0664 298.24 46.0664Z" fill="#407BFF"/>
<path d="M369.275 107.582H351.124C345.421 107.582 340.797 102.958 340.797 97.255V79.1047C340.797 73.4017 345.421 68.7773 351.124 68.7773H369.275C374.978 68.7773 379.602 73.4017 379.602 79.1047V97.255C379.593 102.958 374.978 107.582 369.275 107.582Z" fill="#407BFF"/>
<path d="M369.275 107.582H351.124C345.421 107.582 340.797 102.958 340.797 97.255V79.1047C340.797 73.4017 345.421 68.7773 351.124 68.7773H369.275C374.978 68.7773 379.602 73.4017 379.602 79.1047V97.255C379.593 102.958 374.978 107.582 369.275 107.582Z" fill="#407BFF"/>
<path d="M364.538 82.0034V87.4625C364.538 89.7231 362.699 91.5616 360.439 91.5616H355.223L349.267 97.5179V91.5616C347.007 91.5616 345.168 89.7231 345.168 87.4625V82.0034C345.168 79.7428 347.007 77.9043 349.267 77.9043H360.439C362.709 77.9137 364.538 79.7428 364.538 82.0034Z" fill="white"/>
<path d="M348.798 98.6629V92.0125C346.5 91.778 344.699 89.8269 344.699 87.4725V82.0134C344.699 79.4995 346.744 77.4453 349.267 77.4453H360.439C362.953 77.4453 365.007 79.4902 365.007 82.0134V87.4725C365.007 89.9864 362.962 92.0406 360.439 92.0406H355.42L348.798 98.6629ZM349.267 78.3833C347.269 78.3833 345.637 80.0154 345.637 82.0134V87.4725C345.637 89.4705 347.269 91.1026 349.267 91.1026H349.736V96.4023L355.036 91.1026H360.448C362.446 91.1026 364.078 89.4705 364.078 87.4725V82.0134C364.078 80.0154 362.446 78.3833 360.448 78.3833H349.267Z" fill="#407BFF"/>
<path d="M375.222 90.2493V94.4516C375.222 96.1963 373.805 97.6033 372.07 97.6033V102.19L367.483 97.6033H363.468C361.724 97.6033 360.317 96.1963 360.317 94.4516V90.2493C360.317 88.5047 361.724 87.0977 363.468 87.0977H372.061C373.805 87.0977 375.222 88.514 375.222 90.2493Z" fill="white"/>
<path d="M372.539 103.326L367.296 98.0823H363.478C361.48 98.0823 359.857 96.4595 359.857 94.4616V90.2594C359.857 88.2614 361.48 86.6387 363.478 86.6387H372.07C374.068 86.6387 375.691 88.2614 375.691 90.2594V94.4616C375.691 96.3001 374.312 97.8196 372.539 98.0541V103.326ZM363.468 87.5673C361.986 87.5673 360.786 88.7679 360.786 90.25V94.4522C360.786 95.9343 361.986 97.1349 363.468 97.1349H367.671L371.592 101.056V97.1349H372.061C373.543 97.1349 374.743 95.9343 374.743 94.4522V90.25C374.743 88.7679 373.543 87.5673 372.061 87.5673H363.468Z" fill="#407BFF"/>
<path d="M360.204 82.3501H350.093C349.83 82.3501 349.624 82.1437 349.624 81.8811C349.624 81.6185 349.83 81.4121 350.093 81.4121H360.204C360.467 81.4121 360.673 81.6185 360.673 81.8811C360.673 82.1437 360.467 82.3501 360.204 82.3501Z" fill="#407BFF"/>
<path d="M360.204 84.7134H350.093C349.83 84.7134 349.624 84.507 349.624 84.2444C349.624 83.9818 349.83 83.7754 350.093 83.7754H360.204C360.467 83.7754 360.673 83.9818 360.673 84.2444C360.673 84.507 360.467 84.7134 360.204 84.7134Z" fill="#407BFF"/>
<path d="M357.4 87.0689H350.102C349.839 87.0689 349.633 86.8625 349.633 86.5999C349.633 86.3372 349.839 86.1309 350.102 86.1309H357.4C357.662 86.1309 357.869 86.3372 357.869 86.5999C357.869 86.8625 357.653 87.0689 357.4 87.0689Z" fill="#407BFF"/>
<path d="M348.46 173.974H330.282C324.57 173.974 319.936 169.341 319.936 163.628V145.45C319.936 139.737 324.57 135.104 330.282 135.104H348.46C354.173 135.104 358.807 139.737 358.807 145.45V163.628C358.807 169.35 354.173 173.974 348.46 173.974Z" fill="#407BFF"/>
<path d="M354.098 157.119C354.098 157.541 354.07 159.005 354.013 159.417H324.363C324.344 159.202 324.335 157.935 324.335 157.72C324.335 154.249 326.98 151.397 330.366 151.079C330.366 150.994 330.366 150.919 330.366 150.835C330.366 146.52 333.865 143.012 338.189 143.012C341.688 143.012 344.643 145.3 345.646 148.461C346.115 148.471 346.584 148.518 347.035 148.602C351.04 149.343 354.098 152.879 354.098 157.119Z" fill="white"/>
<path d="M365.044 245.373H346.894C341.191 245.373 336.567 240.749 336.567 235.046V216.896C336.567 211.193 341.191 206.568 346.894 206.568H365.044C370.747 206.568 375.372 211.193 375.372 216.896V235.046C375.372 240.749 370.747 245.373 365.044 245.373Z" fill="#407BFF"/>
<g opacity="0.6">
<path d="M365.044 245.373H346.894C341.191 245.373 336.567 240.749 336.567 235.046V216.896C336.567 211.193 341.191 206.568 346.894 206.568H365.044C370.747 206.568 375.372 211.193 375.372 216.896V235.046C375.372 240.749 370.747 245.373 365.044 245.373Z" fill="white"/>
</g>
<path fill-rule="evenodd" clip-rule="evenodd" d="M367.783 222.064V233.227H344.155V221.971L355.73 229.512L367.783 222.064Z" fill="white"/>
<path fill-rule="evenodd" clip-rule="evenodd" d="M367.783 219.795V219.954L355.73 227.393L344.155 219.851V219.795H367.783Z" fill="white"/>
</svg>
